<svg width="6490" height="5227" viewBox="0 0 6490 5227" fill="none" xmlns="http://www.w3.org/2000/svg">
<g clip-path="url(#clip0_0_10)" filter="url(#filter0_d_0_10)">
<rect width="6482" height="5219" transform="translate(4)" fill="#9B9997"/>
<g filter="url(#filter1_f_0_10)">
<path d="M10825.4 3712.97H6283.47L6530.92 6038.85L12133.9 5851.36L10825.4 3712.97Z" fill="#6D6773"/>
</g>
<rect x="4318.74" y="-227.496" width="5943.77" height="3966.04" fill="url(#paint0_linear_0_10)"/>
<path d="M210.437 -5202.5L4318.74 -227.496V3738.54L210.437 8610.45H-988.222L-988.222 -5202.5H210.437Z" fill="#7A6C62"/>
<g opacity="0.9">
<path d="M4025.25 3195.88V107.632L2697.59 -902.469V4218.25L4025.25 3195.88Z" fill="url(#paint1_linear_0_10)"/>
<path d="M2481.52 -629.105V4383.25L1017.72 5502.18H732.773V-629.105H2481.52Z" fill="url(#paint2_linear_0_10)"/>
</g>
<g filter="url(#filter2_f_0_10)">
<ellipse rx="164.66" ry="271.204" transform="matrix(-0.648771 0.760983 0.760983 0.648771 1796.94 882.618)" fill="#7C8835" fill-opacity="0.5"/>
<ellipse rx="164.66" ry="271.204" transform="matrix(-0.648771 0.760983 0.760983 0.648771 2448.25 1268.23)" fill="#7C8835" fill-opacity="0.5"/>
<ellipse rx="249.672" ry="411.226" transform="matrix(-0.648771 0.760983 0.760983 0.648771 2958.57 2109.08)" fill="#7C8835" fill-opacity="0.5"/>
<ellipse rx="116.233" ry="191.443" transform="matrix(-0.316168 0.948703 0.948703 0.316168 1856.01 1365.73)" fill="#7C8835" fill-opacity="0.5"/>
<ellipse rx="116.233" ry="191.443" transform="matrix(-0.316168 0.948703 0.948703 0.316168 2232.72 1267.18)" fill="#7C8835" fill-opacity="0.5"/>
<ellipse rx="176.244" ry="290.285" transform="matrix(-0.316168 0.948703 0.948703 0.316168 2631.76 2107.49)" fill="#7C8835" fill-opacity="0.5"/>
<ellipse rx="116.233" ry="191.443" transform="matrix(0.902968 0.429708 0.429708 -0.902968 1133.82 -68.7497)" fill="#7C8835" fill-opacity="0.5"/>
<ellipse rx="116.233" ry="191.443" transform="matrix(0.942344 -0.334645 -0.334645 -0.942344 923.716 -71.7363)" fill="#7C8835" fill-opacity="0.5"/>
<ellipse rx="116.233" ry="191.443" transform="matrix(0.942344 -0.334645 -0.334645 -0.942344 1239.05 184.123)" fill="#7C8835" fill-opacity="0.5"/>
<ellipse rx="116.233" ry="191.443" transform="matrix(-0.316168 0.948703 0.948703 0.316168 897.806 548.817)" fill="#7C8835" fill-opacity="0.5"/>
<ellipse rx="285.732" ry="179.189" transform="matrix(-0.648771 0.760983 0.760983 0.648771 1145.46 639.038)" fill="#7C8835" fill-opacity="0.5"/>
<ellipse rx="285.732" ry="179.189" transform="matrix(-0.648771 0.760983 0.760983 0.648771 1735.55 812.795)" fill="#7C8835" fill-opacity="0.5"/>
<ellipse rx="213.161" ry="133.678" transform="matrix(-0.648771 0.760983 0.760983 0.648771 1406.47 1415.33)" fill="#7C8835" fill-opacity="0.5"/>
<ellipse rx="285.732" ry="179.189" transform="matrix(-0.0197536 0.999805 0.999805 0.0197536 1259.03 782.016)" fill="#7C8835" fill-opacity="0.5"/>
<ellipse rx="285.732" ry="179.189" transform="matrix(-0.0197536 0.999805 0.999805 0.0197536 2131.16 819.259)" fill="#7C8835" fill-opacity="0.5"/>
<ellipse rx="285.732" ry="179.189" transform="matrix(-0.0197536 0.999805 0.999805 0.0197536 3027.33 1096.87)" fill="#7C8835" fill-opacity="0.5"/>
<ellipse rx="433.253" ry="271.704" transform="matrix(-0.0197536 0.999805 0.999805 0.0197536 3545.6 1805.09)" fill="#7C8835" fill-opacity="0.5"/>
<ellipse rx="285.732" ry="179.189" transform="matrix(-0.911093 0.4122 0.4122 0.911093 3370.53 1838.14)" fill="#7C8835" fill-opacity="0.5"/>
<ellipse rx="285.732" ry="179.189" transform="matrix(-0.911093 0.4122 0.4122 0.911093 1843.75 1883.42)" fill="#7C8835" fill-opacity="0.5"/>
<ellipse rx="285.732" ry="179.189" transform="matrix(-0.994777 -0.102069 -0.102069 0.994777 2700.82 1076.55)" fill="#7C8835" fill-opacity="0.5"/>
<ellipse rx="433.253" ry="271.704" transform="matrix(-0.994777 -0.102069 -0.102069 0.994777 3341.53 1818.44)" fill="#7C8835" fill-opacity="0.5"/>
<ellipse rx="285.732" ry="179.189" transform="matrix(-0.0197536 0.999805 0.999805 0.0197536 3590.67 1645.31)" fill="#7C8835" fill-opacity="0.5"/>
</g>
<g filter="url(#filter3_f_0_10)">
<ellipse cx="2366.46" cy="1268.25" rx="164.66" ry="271.204" transform="rotate(6.98646 2366.46 1268.25)" fill="#5E7A3B" fill-opacity="0.65"/>
<ellipse cx="2808.7" cy="1322.45" rx="164.66" ry="271.204" transform="rotate(6.98646 2808.7 1322.45)" fill="#5E7A3B" fill-opacity="0.65"/>
<ellipse cx="2147.6" cy="1992.83" rx="164.66" ry="271.204" transform="rotate(6.98646 2147.6 1992.83)" fill="#5E7A3B" fill-opacity="0.65"/>
<ellipse cx="2340.51" cy="2957.31" rx="249.672" ry="411.226" transform="rotate(6.98646 2340.51 2957.31)" fill="#5E7A3B" fill-opacity="0.65"/>
<ellipse cx="2649.74" cy="1664.03" rx="116.233" ry="191.443" transform="rotate(29.0042 2649.74 1664.03)" fill="#5E7A3B" fill-opacity="0.65"/>
<ellipse cx="2305.63" cy="1846.26" rx="116.233" ry="191.443" transform="rotate(29.0042 2305.63 1846.26)" fill="#5E7A3B" fill-opacity="0.65"/>
<ellipse cx="2580.14" cy="2735.08" rx="176.244" ry="290.285" transform="rotate(29.0042 2580.14 2735.08)" fill="#5E7A3B" fill-opacity="0.65"/>
<ellipse cx="3156.02" cy="1317.93" rx="116.233" ry="191.443" transform="rotate(29.0042 3156.02 1317.93)" fill="#5E7A3B" fill-opacity="0.65"/>
<ellipse cx="1995.4" cy="92.5472" rx="116.233" ry="191.443" transform="rotate(29.0042 1995.4 92.5472)" fill="#5E7A3B" fill-opacity="0.65"/>
<ellipse cx="2211.33" cy="119.01" rx="116.233" ry="191.443" transform="rotate(111.986 2211.33 119.01)" fill="#5E7A3B" fill-opacity="0.65"/>
<ellipse cx="2364.06" cy="-25.3093" rx="116.233" ry="191.443" transform="rotate(156.986 2364.06 -25.3093)" fill="#5E7A3B" fill-opacity="0.65"/>
<ellipse cx="3412.63" cy="103.187" rx="116.233" ry="191.443" transform="rotate(156.986 3412.63 103.187)" fill="#5E7A3B" fill-opacity="0.65"/>
<ellipse cx="2304.88" cy="376.435" rx="116.233" ry="191.443" transform="rotate(156.986 2304.88 376.435)" fill="#5E7A3B" fill-opacity="0.65"/>
<ellipse cx="3468.55" cy="519.037" rx="116.233" ry="191.443" transform="rotate(156.986 3468.55 519.037)" fill="#5E7A3B" fill-opacity="0.65"/>
<ellipse cx="2802.9" cy="414.211" rx="116.233" ry="191.443" transform="rotate(29.0042 2802.9 414.211)" fill="#5E7A3B" fill-opacity="0.65"/>
<ellipse cx="2681.53" cy="648.178" rx="285.732" ry="179.189" transform="rotate(6.98646 2681.53 648.178)" fill="#5E7A3B" fill-opacity="0.65"/>
<ellipse cx="3404.47" cy="307.401" rx="285.732" ry="179.189" transform="rotate(6.98646 3404.47 307.401)" fill="#5E7A3B" fill-opacity="0.65"/>
<ellipse cx="2364.45" cy="1175.3" rx="285.732" ry="179.189" transform="rotate(6.98646 2364.45 1175.3)" fill="#5E7A3B" fill-opacity="0.65"/>
<ellipse cx="3014.39" cy="1396.49" rx="213.161" ry="133.678" transform="rotate(6.98646 3014.39 1396.49)" fill="#5E7A3B" fill-opacity="0.65"/>
<ellipse cx="3653.11" cy="1100.09" rx="213.161" ry="133.678" transform="rotate(6.98646 3653.11 1100.09)" fill="#5E7A3B" fill-opacity="0.65"/>
<ellipse cx="2694.59" cy="830.307" rx="285.732" ry="179.189" transform="rotate(46.3036 2694.59 830.307)" fill="#5E7A3B" fill-opacity="0.65"/>
<ellipse cx="2434.74" cy="1003.39" rx="285.732" ry="179.189" transform="rotate(46.3036 2434.74 1003.39)" fill="#5E7A3B" fill-opacity="0.65"/>
<ellipse cx="3621.7" cy="943.919" rx="285.732" ry="179.189" transform="rotate(46.3036 3621.7 943.919)" fill="#5E7A3B" fill-opacity="0.65"/>
<ellipse cx="1962.48" cy="1814.05" rx="285.732" ry="179.189" transform="rotate(46.3036 1962.48 1814.05)" fill="#5E7A3B" fill-opacity="0.65"/>
<ellipse cx="2059.82" cy="2686.23" rx="433.253" ry="271.704" transform="rotate(46.3036 2059.82 2686.23)" fill="#5E7A3B" fill-opacity="0.65"/>
<ellipse cx="1853.82" cy="3036.42" rx="285.732" ry="179.189" transform="rotate(-18.2214 1853.82 3036.42)" fill="#5E7A3B" fill-opacity="0.65"/>
<ellipse cx="3008.95" cy="2037.02" rx="285.732" ry="179.189" transform="rotate(-18.2214 3008.95 2037.02)" fill="#5E7A3B" fill-opacity="0.65"/>
<ellipse cx="3682.21" cy="656.153" rx="285.732" ry="179.189" transform="rotate(-18.2214 3682.21 656.153)" fill="#5E7A3B" fill-opacity="0.65"/>
<ellipse cx="3745.14" cy="349.148" rx="285.732" ry="179.189" transform="rotate(-48.4228 3745.14 349.148)" fill="#5E7A3B" fill-opacity="0.65"/>
<ellipse cx="1831.92" cy="2022.49" rx="285.732" ry="179.189" transform="rotate(-48.4228 1831.92 2022.49)" fill="#5E7A3B" fill-opacity="0.65"/>
<ellipse cx="1861.85" cy="3002.29" rx="433.253" ry="271.704" transform="rotate(-48.4228 1861.85 3002.29)" fill="#5E7A3B" fill-opacity="0.65"/>
<ellipse cx="1561.25" cy="3043.3" rx="285.732" ry="179.189" transform="rotate(46.3036 1561.25 3043.3)" fill="#5E7A3B" fill-opacity="0.65"/>
</g>
<g opacity="0.5">
<g filter="url(#filter4_f_0_10)">
<ellipse rx="130.982" ry="215.735" transform="matrix(-0.648771 0.760983 0.760983 0.648771 1328.93 2058.37)" fill="#6E7351" fill-opacity="0.65"/>
<ellipse rx="130.982" ry="215.735" transform="matrix(-0.648771 0.760983 0.760983 0.648771 1098.99 2328.08)" fill="#6E7351" fill-opacity="0.65"/>
<ellipse rx="130.982" ry="215.735" transform="matrix(-0.648771 0.760983 0.760983 0.648771 1847.03 2365.12)" fill="#6E7351" fill-opacity="0.65"/>
<ellipse rx="198.607" ry="327.118" transform="matrix(-0.648771 0.760983 0.760983 0.648771 2252.96 3033.99)" fill="#6E7351" fill-opacity="0.65"/>
<ellipse rx="92.4602" ry="152.288" transform="matrix(-0.316168 0.948703 0.948703 0.316168 1375.91 2442.67)" fill="#6E7351" fill-opacity="0.65"/>
<ellipse rx="92.4602" ry="152.288" transform="matrix(-0.316168 0.948703 0.948703 0.316168 1675.58 2364.29)" fill="#6E7351" fill-opacity="0.65"/>
<ellipse rx="140.197" ry="230.913" transform="matrix(-0.316168 0.948703 0.948703 0.316168 1993 3032.73)" fill="#6E7351" fill-opacity="0.65"/>
<ellipse rx="92.4602" ry="152.288" transform="matrix(-0.316168 0.948703 0.948703 0.316168 893.073 2512.32)" fill="#6E7351" fill-opacity="0.65"/>
<ellipse rx="92.4602" ry="152.288" transform="matrix(-0.316168 0.948703 0.948703 0.316168 913.709 1169.9)" fill="#6E7351" fill-opacity="0.65"/>
<ellipse rx="92.4602" ry="152.288" transform="matrix(0.902968 0.429708 0.429708 -0.902968 801.436 1301.59)" fill="#6E7351" fill-opacity="0.65"/>
<ellipse rx="92.4602" ry="152.288" transform="matrix(0.942344 -0.334645 -0.334645 -0.942344 885.142 1502.74)" fill="#6E7351" fill-opacity="0.65"/>
<ellipse rx="227.291" ry="142.54" transform="matrix(-0.648771 0.760983 0.760983 0.648771 1280.09 2002.83)" fill="#6E7351" fill-opacity="0.65"/>
<ellipse rx="169.563" ry="106.337" transform="matrix(-0.648771 0.760983 0.760983 0.648771 1018.32 2482.13)" fill="#6E7351" fill-opacity="0.65"/>
<ellipse rx="169.563" ry="106.337" transform="matrix(-0.648771 0.760983 0.760983 0.648771 484.626 2652.16)" fill="#6E7351" fill-opacity="0.65"/>
<ellipse rx="227.291" ry="142.54" transform="matrix(-0.0197536 0.999805 0.999805 0.0197536 901.036 1978.35)" fill="#6E7351" fill-opacity="0.65"/>
<ellipse rx="227.291" ry="142.54" transform="matrix(-0.0197536 0.999805 0.999805 0.0197536 1594.79 2007.97)" fill="#6E7351" fill-opacity="0.65"/>
<ellipse rx="227.291" ry="142.54" transform="matrix(-0.0197536 0.999805 0.999805 0.0197536 867.38 2611.8)" fill="#6E7351" fill-opacity="0.65"/>
<ellipse rx="227.291" ry="142.54" transform="matrix(-0.0197536 0.999805 0.999805 0.0197536 2307.67 2228.81)" fill="#6E7351" fill-opacity="0.65"/>
<ellipse rx="344.64" ry="216.132" transform="matrix(-0.0197536 0.999805 0.999805 0.0197536 2719.93 2792.18)" fill="#6E7351" fill-opacity="0.65"/>
<ellipse rx="227.291" ry="142.54" transform="matrix(-0.911093 0.4122 0.4122 0.911093 2580.67 2818.46)" fill="#6E7351" fill-opacity="0.65"/>
<ellipse rx="227.291" ry="142.54" transform="matrix(-0.911093 0.4122 0.4122 0.911093 1366.16 2854.48)" fill="#6E7351" fill-opacity="0.65"/>
<ellipse rx="227.291" ry="142.54" transform="matrix(-0.994777 -0.102069 -0.102069 0.994777 2047.94 2212.64)" fill="#6E7351" fill-opacity="0.65"/>
<ellipse rx="344.64" ry="216.132" transform="matrix(-0.994777 -0.102069 -0.102069 0.994777 2557.6 2802.79)" fill="#6E7351" fill-opacity="0.65"/>
<ellipse rx="227.291" ry="142.54" transform="matrix(-0.0197536 0.999805 0.999805 0.0197536 2755.78 2665.07)" fill="#6E7351" fill-opacity="0.65"/>
</g>
<g filter="url(#filter5_f_0_10)">
<ellipse cx="1781.96" cy="2365.13" rx="130.982" ry="215.735" transform="rotate(6.98646 1781.96 2365.13)" fill="#5E7A3B" fill-opacity="0.65"/>
<ellipse cx="2133.75" cy="2408.24" rx="130.982" ry="215.735" transform="rotate(6.98646 2133.75 2408.24)" fill="#5E7A3B" fill-opacity="0.65"/>
<ellipse cx="1607.86" cy="2941.51" rx="130.982" ry="215.735" transform="rotate(6.98646 1607.86 2941.51)" fill="#5E7A3B" fill-opacity="0.65"/>
<ellipse cx="1761.32" cy="3708.73" rx="198.607" ry="327.118" transform="rotate(6.98646 1761.32 3708.73)" fill="#5E7A3B" fill-opacity="0.65"/>
<ellipse cx="2007.3" cy="2679.96" rx="92.4602" ry="152.288" transform="rotate(29.0042 2007.3 2679.96)" fill="#5E7A3B" fill-opacity="0.65"/>
<ellipse cx="1733.57" cy="2824.92" rx="92.4602" ry="152.288" transform="rotate(29.0042 1733.57 2824.92)" fill="#5E7A3B" fill-opacity="0.65"/>
<ellipse cx="1951.94" cy="3531.95" rx="140.197" ry="230.913" transform="rotate(29.0042 1951.94 3531.95)" fill="#5E7A3B" fill-opacity="0.65"/>
<ellipse cx="2410.03" cy="2404.65" rx="92.4602" ry="152.288" transform="rotate(29.0042 2410.03 2404.65)" fill="#5E7A3B" fill-opacity="0.65"/>
<ellipse cx="1658.56" cy="1450.94" rx="92.4602" ry="152.288" transform="rotate(111.986 1658.56 1450.94)" fill="#5E7A3B" fill-opacity="0.65"/>
<ellipse cx="1780.05" cy="1336.14" rx="92.4602" ry="152.288" transform="rotate(156.986 1780.05 1336.14)" fill="#5E7A3B" fill-opacity="0.65"/>
<ellipse cx="2614.16" cy="1438.36" rx="92.4602" ry="152.288" transform="rotate(156.986 2614.16 1438.36)" fill="#5E7A3B" fill-opacity="0.65"/>
<ellipse cx="1732.98" cy="1655.72" rx="92.4602" ry="152.288" transform="rotate(156.986 1732.98 1655.72)" fill="#5E7A3B" fill-opacity="0.65"/>
<ellipse cx="2658.64" cy="1769.15" rx="92.4602" ry="152.288" transform="rotate(156.986 2658.64 1769.15)" fill="#5E7A3B" fill-opacity="0.65"/>
<ellipse cx="2129.14" cy="1685.77" rx="92.4602" ry="152.288" transform="rotate(29.0042 2129.14 1685.77)" fill="#5E7A3B" fill-opacity="0.65"/>
<ellipse cx="2032.59" cy="1871.88" rx="227.291" ry="142.54" transform="rotate(6.98646 2032.59 1871.88)" fill="#5E7A3B" fill-opacity="0.65"/>
<ellipse cx="2607.67" cy="1600.8" rx="227.291" ry="142.54" transform="rotate(6.98646 2607.67 1600.8)" fill="#5E7A3B" fill-opacity="0.65"/>
<ellipse cx="1780.36" cy="2291.2" rx="227.291" ry="142.54" transform="rotate(6.98646 1780.36 2291.2)" fill="#5E7A3B" fill-opacity="0.65"/>
<ellipse cx="2297.37" cy="2467.14" rx="169.563" ry="106.337" transform="rotate(6.98646 2297.37 2467.14)" fill="#5E7A3B" fill-opacity="0.65"/>
<ellipse cx="2805.45" cy="2231.36" rx="169.563" ry="106.337" transform="rotate(6.98646 2805.45 2231.36)" fill="#5E7A3B" fill-opacity="0.65"/>
<ellipse cx="2042.98" cy="2016.76" rx="227.291" ry="142.54" transform="rotate(46.3036 2042.98 2016.76)" fill="#5E7A3B" fill-opacity="0.65"/>
<ellipse cx="1836.28" cy="2154.44" rx="227.291" ry="142.54" transform="rotate(46.3036 1836.28 2154.44)" fill="#5E7A3B" fill-opacity="0.65"/>
<ellipse cx="2780.46" cy="2107.13" rx="227.291" ry="142.54" transform="rotate(46.3036 2780.46 2107.13)" fill="#5E7A3B" fill-opacity="0.65"/>
<ellipse cx="1460.61" cy="2799.29" rx="227.291" ry="142.54" transform="rotate(46.3036 1460.61 2799.29)" fill="#5E7A3B" fill-opacity="0.65"/>
<ellipse cx="1538.04" cy="3493.09" rx="344.64" ry="216.132" transform="rotate(46.3036 1538.04 3493.09)" fill="#5E7A3B" fill-opacity="0.65"/>
<ellipse cx="1374.17" cy="3771.66" rx="227.291" ry="142.54" transform="rotate(-18.2214 1374.17 3771.66)" fill="#5E7A3B" fill-opacity="0.65"/>
<ellipse cx="2293.04" cy="2976.67" rx="227.291" ry="142.54" transform="rotate(-18.2214 2293.04 2976.67)" fill="#5E7A3B" fill-opacity="0.65"/>
<ellipse cx="2828.6" cy="1878.22" rx="227.291" ry="142.54" transform="rotate(-18.2214 2828.6 1878.22)" fill="#5E7A3B" fill-opacity="0.65"/>
<ellipse cx="2878.66" cy="1634.01" rx="227.291" ry="142.54" transform="rotate(-48.4228 2878.66 1634.01)" fill="#5E7A3B" fill-opacity="0.65"/>
<ellipse cx="1356.75" cy="2965.11" rx="227.291" ry="142.54" transform="rotate(-48.4228 1356.75 2965.11)" fill="#5E7A3B" fill-opacity="0.65"/>
<ellipse cx="1380.56" cy="3744.51" rx="344.64" ry="216.132" transform="rotate(-48.4228 1380.56 3744.51)" fill="#5E7A3B" fill-opacity="0.65"/>
<ellipse cx="1141.44" cy="3777.13" rx="227.291" ry="142.54" transform="rotate(46.3036 1141.44 3777.13)" fill="#5E7A3B" fill-opacity="0.65"/>
</g>
</g>
<path d="M1765.42 5241.98L4031.34 3344.25H3843.99L1360.16 5241.98H1765.42Z" fill="#887777"/>
<path d="M1377.01 5243.4H948.451L3650.49 3343.36H3852.94L1377.01 5243.4Z" fill="#887777"/>
<g filter="url(#filter6_f_0_10)">
<path d="M1410.49 5209.98L2473.11 4399.36L3857.76 3343.08V-197.832" stroke="#453F33" stroke-width="40"/>
</g>
<rect x="3842.92" y="20.3997" width="182.334" height="3329.92" fill="url(#paint3_linear_0_10)"/>
<path d="M2151.65 4398.69V-27.7292H2775.6V4398.69H2151.65Z" fill="url(#paint4_linear_0_10)"/>
<path d="M2897.22 4296.78L2775.6 4398.69V-45.9207H2897.22V4296.78Z" fill="#3D2F3B"/>
<g filter="url(#filter7_f_0_10)">
<path d="M2474.48 4387.62V-349.793" stroke="#453F33" stroke-width="40"/>
</g>
<g style="mix-blend-mode:soft-light" opacity="0.5">
<path d="M2608.23 -2467.37C2275.48 -3105.53 2091.46 -3786.02 2041.04 -4046.5L742.802 -3899.98C776.413 -3091.42 911.699 -1275.7 1183.95 -481.253C1524.26 511.806 1839.37 414.128 2204.89 2090.93C2497.31 3432.38 2763.68 3746.03 2860.31 3735.18H4707.24C4707.24 3018.87 4354.32 1146.71 4001.4 218.772C3648.48 -709.168 3024.17 -1669.67 2608.23 -2467.37Z" fill="#FAD9BE"/>
</g>
<g style="mix-blend-mode:soft-light" opacity="0.5">
<path d="M2469.58 -2092.94C2136.83 -2731.1 2091.46 -3786.02 2041.04 -4046.5L742.802 -3899.98C776.413 -3091.42 316.453 -1587.14 588.704 -792.692C929.019 200.367 566.453 1465.7 931.976 3142.5C1224.39 4483.94 1715.38 4818.12 1964.05 4810.1C2212.72 4802.08 3448.06 3727.17 3448.06 3727.17C3448.06 3010.87 3649.56 2040.52 3296.64 1112.58C2943.72 184.643 2885.52 -1295.24 2469.58 -2092.94Z" fill="#FAD9BE"/>
</g>
<g style="mix-blend-mode:soft-light" filter="url(#filter8_f_0_10)">
<g style="mix-blend-mode:soft-light" opacity="0.5">
<path d="M2608.23 -2467.37C2275.48 -3105.53 2091.46 -3786.02 2041.04 -4046.5L742.802 -3899.98C776.413 -3091.42 911.699 -1275.7 1183.95 -481.253C1524.26 511.806 1839.37 414.128 2204.89 2090.93C2497.31 3432.38 2763.68 3746.03 2860.31 3735.18H4707.24C4707.24 3018.87 4354.32 1146.71 4001.4 218.772C3648.48 -709.168 3024.17 -1669.67 2608.23 -2467.37Z" fill="#DDC39B"/>
</g>
<g style="mix-blend-mode:soft-light" opacity="0.5">
<path d="M2469.58 -2092.94C2136.83 -2731.1 2091.46 -3786.02 2041.04 -4046.5L742.802 -3899.98C776.413 -3091.42 316.453 -1587.14 588.704 -792.692C929.019 200.367 566.453 1465.7 931.976 3142.5C1224.39 4483.94 1715.38 4818.12 1964.05 4810.1C2212.72 4802.08 3448.06 3727.17 3448.06 3727.17C3448.06 3010.87 3649.56 2040.52 3296.64 1112.58C2943.72 184.643 2885.52 -1295.24 2469.58 -2092.94Z" fill="#DDC39B"/>
</g>
</g>
<g filter="url(#filter9_f_0_10)">
<path d="M4549.75 5168.8V2779.4H4311.99V5168.8H4549.75Z" fill="#392525"/>
<path d="M3206.22 5168.8V2779.4H3067.03V5168.8H3206.22Z" fill="#392525"/>
<rect x="3129.63" y="2779.4" width="1420.12" height="116.304" fill="#392525"/>
<path d="M4549.75 2794.33V5168.8L4648.73 4963.89V2702.57L4549.75 2794.33Z" fill="#301F1F"/>
<path d="M3205.97 2795.4V5169.88L3304.95 5039.82V2703.64L3205.97 2795.4Z" fill="#301F1F"/>
</g>
<g filter="url(#filter10_f_0_10)">
<path d="M3527.36 5628.03V3443.59H3266.4V5628.03H3527.36Z" fill="url(#paint5_linear_0_10)"/>
<path d="M1805.45 5628.03V3443.59H1575V5628.03H1805.45Z" fill="url(#paint6_linear_0_10)"/>
<rect x="1805.45" y="3443.59" width="1460.95" height="172.841" fill="url(#paint7_linear_0_10)"/>
<path d="M3518.52 3420.85V5199.98H3648.24V3346.72L3518.52 3420.85Z" fill="#301F1F"/>
<path d="M1805.45 3616.43V5199.99H1935.18V3616.43H1805.45Z" fill="#301F1F"/>
</g>
<g filter="url(#filter11_f_0_10)">
<path d="M3630.24 3307.84V3453.59H1490.55V3307.84L3869.39 2440.53H4898.14L3630.24 3307.84Z" fill="#A98668"/>
<path d="M1490.55 3307.84H3630.24V3506.7H1490.55V3307.84Z" fill="#71503D"/>
<path d="M3630.24 3307.84L5138.51 2276.11V2331.04L3630.24 3503.85V3307.84Z" fill="#BD9571"/>
</g>
<path d="M4384.37 2540.39L3795.4 2539.59L2874.66 2908.24H3670.89L4384.37 2540.39Z" fill="#C4C4C4"/>
<path d="M2534.8 2004.28L2874.85 2908.21L3795.7 2539.81L3496.33 1907.32L2534.8 2004.28Z" fill="#D2D2D2"/>
<g style="mix-blend-mode:soft-light" opacity="0.5" filter="url(#filter12_f_0_10)">
<path d="M4272.18 1116.41L2623.18 2054.2L2925.28 2847.23L3737.19 2532.54L4756.81 2211.55L4272.18 1116.41Z" fill="url(#paint8_linear_0_10)"/>
</g>
<path d="M2874.64 2907.65H3670.89V2927.11H2903.86C2891.09 2927.11 2879.57 2919.43 2874.64 2907.65Z" fill="#BABABA"/>
<path d="M4066.1 2704.31L3670.26 2907.36V2927.2L4066.1 2717.57V2704.31Z" fill="#BABABA"/>
<g filter="url(#filter13_f_0_10)">
<path d="M60.5726 6211.43C1.32672 6246.97 -104.328 6317.08 -149.75 6347.69C-146.23 6318.88 -141.302 6251.3 -149.75 6211.43C-160.311 6161.59 -254.361 5986.03 -281.69 5913.8C-303.553 5856.02 -242.649 5791.91 -209.464 5767.08C-210.766 5734 -210.245 5654.96 -197.752 5603.42C-182.135 5539 -88.4362 5355.51 106.77 5117.36C262.935 4926.84 593.483 4864.89 739.237 4857.74L795.847 5054.89C842.696 4980.72 868.073 4965.1 973.484 4953.39C1078.9 4941.67 1172.59 5021.71 1229.2 5082.22C1285.81 5142.74 1262.39 5341.85 1258.48 5392.6C1254.58 5443.35 1197.97 5503.87 1141.36 5613.18C1096.07 5700.63 994.957 5825.31 950.06 5876.71C870.416 5995.69 720.654 6113.64 655.728 6157.74C667.104 5930.22 650.672 5807.62 634.241 5727.99C617.809 5648.36 563.458 5519.43 541.97 5533.33C520.482 5547.24 543.234 5624.34 552.313 5671.11C561.393 5717.88 549.351 5852.99 552.313 5918.16C555.276 5983.33 504.917 6069.24 448.633 6110.71C403.606 6143.89 252.134 6179.83 182.027 6193.65C216.587 6158.1 287.484 6069.24 294.594 5998.14C303.481 5909.27 330.141 5767.08 309.405 5767.08C288.669 5767.08 247.197 5864.84 232.386 5998.14C217.574 6131.45 134.63 6166.99 60.5726 6211.43Z" fill="#4A6B21"/>
<path d="M885.864 5475.73C950.769 5567.19 947.328 5687.17 937.494 5735.72C913.388 5728.42 885.864 5568.59 843.758 5506.42C801.652 5444.25 762.104 5400.64 773.239 5391.36C784.374 5382.08 804.732 5361.41 885.864 5475.73Z" fill="#BCAEA7"/>
<path d="M1005.44 5201C1073.65 5214.9 1085.44 5253.11 1082.81 5270.48C1067.55 5255.48 1015.7 5227.85 930.428 5237.32C845.156 5246.79 822.785 5236.53 822.259 5230.21C823.048 5194.68 920.164 5183.63 1005.44 5201Z" fill="#BCAEA7"/>
<path d="M469.495 5319.27C441.429 5318.54 430.161 5333.24 428.034 5340.68C428.034 5356.63 442.614 5363.46 469.495 5368.47C491 5372.48 502.148 5356.17 505.033 5347.51C504.882 5338.4 497.561 5319.99 469.495 5319.27Z" fill="#BCAEA7"/>
<path d="M428.034 5567.04C421.64 5556.37 453.011 5537.19 469.495 5528.93C477.184 5526.6 489.132 5527.79 475.411 5551.16C458.26 5580.38 436.027 5580.38 428.034 5567.04Z" fill="#BCAEA7"/>
<path d="M97.4522 5528.93C32.9133 5551.8 -21.7584 5645.6 -41.0269 5689.64C-23.2403 5706.16 125.402 5598.8 151.446 5579.11C177.49 5559.42 178.126 5500.34 97.4522 5528.93Z" fill="#BCAEA7"/>
<path d="M276.068 5310.78C234.716 5278.62 158.331 5297.38 125.307 5310.78L81.5147 5354.57C86.5401 5357.92 107.503 5364.62 151.152 5364.62C205.713 5364.62 327.757 5350.98 276.068 5310.78Z" fill="#BCAEA7"/>
<path d="M708.939 4204.3C936.879 4554.79 1401.58 5360.17 1436.88 5777.82C1472.17 6195.46 1495.7 6785.17 1503.05 7027.81M797.174 5049.88C816.782 4986.16 903.056 4877.82 1091.29 4954.29" stroke="#5F5226" stroke-width="50"/>
<path d="M670.463 2831.04C636.928 2770.64 580.482 2657.09 556.451 2607.87C545.095 2634.58 515.57 2695.58 488.318 2725.88C454.252 2763.76 285.022 2868.78 225.241 2917.67C177.416 2956.77 198.108 3042.74 214.432 3080.84C196.765 3108.84 157.693 3177.55 142.745 3228.43C124.061 3292.03 -0.00255351 3585.69 49.9752 3889.53C89.9574 4132.61 338.847 4494.86 581.358 4342.71L728.963 4200.27C732.446 4287.93 746.615 4314.15 832.047 4377C917.48 4439.84 1038.64 4417.38 1117.93 4393.28C1197.21 4369.18 1276.48 4185.03 1298.47 4139.13C1320.47 4093.22 1301.7 4012.51 1307.33 3889.53C1311.84 3791.15 1286.6 3632.63 1273.42 3565.66C1263.94 3422.8 1193.22 3245.77 1159.04 3175.12C1055.13 3377.84 979.6 3475.8 925.554 3536.55C871.508 3597.3 759.975 3681.77 748.318 3658.99C736.661 3636.2 794.916 3580.81 826.163 3544.85C857.41 3508.88 914.538 3385.85 949.689 3330.89C984.839 3275.93 984.181 3176.36 956.174 3112.3C933.768 3061.05 820.561 2954.19 766.758 2907.16C778.914 2955.23 795.879 3067.64 766.489 3132.77C729.751 3214.17 681.744 3350.64 663.786 3340.27C645.828 3329.91 658.79 3224.51 712.615 3101.66C766.439 2978.81 712.381 2906.55 670.463 2831.04Z" fill="#4A6B21"/>
<path d="M1017.34 3880.82C1119.27 3834.07 1176.28 3728.45 1192.04 3681.48C1167.51 3675.76 1063.76 3800.41 996.214 3833.2C928.665 3865.98 872.61 3883.98 877.613 3897.58C882.617 3911.18 889.912 3939.27 1017.34 3880.82Z" fill="#BCAEA7"/>
<path d="M983.521 4178.54C1049.55 4200.61 1078.87 4173.41 1085.27 4157.05C1064.55 4162.41 1005.83 4160.42 936.722 4109.58C867.611 4058.74 843.106 4056.44 839.492 4061.65C822.41 4092.81 900.988 4150.94 983.521 4178.54Z" fill="#BCAEA7"/>
<path d="M578.515 3808.14C553.845 3794.74 551.437 3776.38 553.316 3768.87C561.289 3755.06 577.333 3756.43 603.119 3765.53C623.747 3772.81 625.246 3792.51 623.416 3801.45C618.729 3809.27 603.186 3821.55 578.515 3808.14Z" fill="#BCAEA7"/>
<path d="M666.498 3572.83C655.624 3578.88 673.2 3611.18 683.347 3626.57C688.841 3632.43 699.781 3637.38 699.587 3610.27C699.344 3576.39 680.089 3565.28 666.498 3572.83Z" fill="#BCAEA7"/>
<path d="M361.148 3440.55C316.69 3388.48 316.244 3279.91 321.578 3232.13C345.239 3226.72 420.291 3394.01 433 3424.09C445.709 3454.16 416.721 3505.64 361.148 3440.55Z" fill="#BCAEA7"/>
<path d="M406.758 3718.78C354.866 3725.96 298.095 3671.52 276.196 3643.4L260.167 3583.58C266.194 3583.19 287.699 3587.87 325.5 3609.69C372.751 3636.97 471.624 3709.81 406.758 3718.78Z" fill="#BCAEA7"/>
<path d="M-715.072 5234.8C-892.455 5260.76 -1143.39 5338.64 -1316.44 5455.45C-1348.99 5483.57 -1405.95 5555.71 -1373.46 5619.34C-1332.84 5698.87 -1246.54 5832.56 -1248.23 5873.18C-1249.92 5913.79 -1255.82 5944.44 -1273.18 5983.27C-1220.28 5983.27 -1141.62 5915.48 -1104.39 5883.33C-1067.16 5851.18 -997.774 5819.02 -948.699 5807.18C-899.623 5795.33 -882.701 5753.03 -869.163 5729.33C-855.624 5705.64 -750.704 5555.03 -715.072 5499.19C-679.44 5443.34 -611.939 5399.34 -610.247 5431.5C-608.554 5463.65 -699.936 5597.34 -750.704 5632.87C-791.318 5661.3 -834.189 5724.82 -850.548 5753.03C-828.548 5715.8 -750.704 5687.03 -684.706 5685.33C-618.708 5683.64 -539.172 5646.41 -488.404 5614.26C-437.636 5582.11 -336.1 5450.11 -310.716 5431.5C-285.332 5412.88 -249.795 5214.89 -249.795 5160.73C-249.795 5106.58 -212.985 5025.35 -182.104 5037.2C-151.224 5049.04 -151.644 5128.58 -163.49 5147.2C-175.335 5165.81 -190.566 5263.96 -182.104 5326.58C-175.335 5376.67 -199.871 5449.14 -212.985 5479.11C-125.145 5479.11 19.4742 5407.89 80.8038 5372.28C263.606 5246.45 309.331 5104.14 309.344 5048.72C636.453 4995.06 754.287 4781.17 772.316 4680.94C941.062 4722.04 1172.55 4609.54 1096.83 4492.72C1036.25 4399.26 817.327 4420.16 715.436 4442.29C730.641 4428.14 755.075 4383.78 731.166 4319.6C701.279 4239.38 628.921 4211.06 512.519 4207.92C419.398 4205.4 202.927 4219.94 106.332 4227.53C92.0007 4214.68 52.0715 4185.43 7.00293 4171.2C-49.3328 4153.41 -153.109 4191.95 -203.515 4202.33C-253.92 4212.71 -425.892 4234.94 -498.536 4254.22C-556.651 4269.64 -588.969 4297.21 -597.865 4309.07C-643.328 4322.91 -749.378 4364.22 -809.865 4418.78C-885.473 4486.97 -922.536 4473.63 -955.152 4509.21C-981.244 4537.68 -1030.53 4598.45 -1051.91 4625.28C-1253.37 4778 -1324.9 4941.63 -1335.48 5004.36C-1450.01 5048.19 -1454.15 5288.74 -1441.91 5403.53C-1411.62 5351.61 -1078.49 5273.74 -991.962 5234.8C-905.434 5195.86 -537.689 5208.84 -715.072 5234.8Z" fill="#285915"/>
<path d="M-246.486 4806.25C-163.587 4814.2 -140.971 4841.73 -140.025 4854.51C-147.123 4877.22 -184.029 4875.8 -246.486 4870.12C-296.451 4865.58 -335.44 4842.68 -348.689 4831.8C-349.162 4819.97 -329.384 4798.3 -246.486 4806.25Z" fill="#C9B9B0"/>
<path d="M-486.622 4862.3C-419.296 4862.86 -411.091 4882.89 -415.404 4892.83C-431.851 4912.14 -475.401 4898.07 -526.597 4892.83C-577.793 4887.6 -658.444 4881.24 -703.328 4884.04C-748.212 4886.85 -834.474 4898.77 -854.111 4900.17C-873.747 4901.57 -871.644 4893.16 -827.461 4867.91C-783.278 4842.66 -661.249 4824.43 -626.885 4830.74C-592.52 4837.05 -570.78 4861.6 -486.622 4862.3Z" fill="#C9B9B0"/>
<path d="M-165.685 4598.83C-94.6038 4623.86 -84.9291 4642.18 -88.9769 4648.21C-111.132 4672.56 -289.576 4618.85 -379.678 4590.07C-469.781 4561.29 -512.329 4557.53 -553.626 4566.29C-594.923 4575.05 -648.734 4588.82 -677.517 4581.31C-706.3 4573.8 -670.009 4545.02 -604.935 4540.01C-539.86 4535.01 -387.187 4526.25 -348.689 4528.75C-310.19 4531.25 -254.536 4567.54 -165.685 4598.83Z" fill="#C9B9B0"/>
<path d="M0.7547 4402.35C47.8083 4423.38 46.2231 4444.49 39.5488 4452.41C28.7753 4463.91 0.7547 4437.27 -21.136 4427.06C-43.0267 4416.85 -107.178 4381.12 -96.9693 4372.37C-86.7609 4363.62 -58.0622 4376.07 0.7547 4402.35Z" fill="#C9B9B0"/>
<path d="M335.235 4894.54C356.803 4947.74 330.443 5013.76 314.567 5040.12C307.677 5005.97 290.662 4932.64 277.722 4912.51C261.546 4887.35 167.187 4796.58 159.099 4788.5C151.011 4780.41 191.451 4759.74 210.323 4769.62C229.194 4779.51 308.276 4828.04 335.235 4894.54Z" fill="#C9B9B0"/>
<path d="M633.589 4548.55C676.724 4560.06 691.702 4589.89 693.798 4603.37C665.94 4617.75 572.48 4582.7 550.014 4570.12C532.041 4560.06 490.403 4561.14 471.831 4562.93C477.822 4558.14 496.095 4545.32 521.257 4532.38C552.71 4516.2 579.669 4534.18 633.589 4548.55Z" fill="#C9B9B0"/>
<path d="M2886.22 5470.61C3021.61 5451.22 3222.05 5453.91 3373.94 5501.93C3403.84 5515.46 3461.12 5555.92 3451.12 5609.5C3438.61 5676.48 3404.39 5792.97 3414.41 5822.31C3424.44 5851.66 3435.39 5872.81 3456.49 5897.46C3417.79 5908.91 3345.57 5876.33 3311.37 5860.86C3277.18 5845.4 3219.46 5836.88 3180.99 5838.83C3142.52 5840.78 3120.98 5813.49 3105.95 5799.09C3090.92 5784.68 2981.57 5697.19 2943.42 5664.04C2905.27 5630.89 2846.36 5613.31 2852.08 5637.2C2857.8 5661.09 2953.58 5739.13 2998.41 5754.14C3034.28 5766.16 3079.39 5803.35 3097.46 5820.45C3073.31 5797.97 3010.13 5793.76 2961.48 5806.81C2912.82 5819.85 2846.58 5809.82 2802.48 5797.28C2758.37 5784.74 2655.53 5710.13 2632.93 5702C2610.33 5693.88 2541.49 5556.7 2529.77 5517.08C2518.06 5477.46 2473.55 5426 2453.52 5441.34C2433.49 5456.69 2451.01 5514.79 2463.7 5525.85C2476.39 5536.91 2508.77 5605.42 2516.13 5653.07C2522.02 5691.18 2555.65 5738.89 2571.73 5757.98C2507.46 5776.99 2386.24 5756.17 2333.66 5743.39C2172.69 5690.88 2108.45 5596.65 2096.45 5556.1C1845.51 5587.62 1713.02 5456.62 1678.15 5387.19C1563.58 5453.77 1369.87 5421.55 1399.99 5319.69C1424.09 5238.2 1588.79 5206.13 1668.13 5200.28C1653.94 5193.21 1626.47 5166.04 1630.07 5113.91C1634.58 5048.75 1681.4 5012.38 1765.88 4984.9C1833.47 4962.91 1994.99 4926.71 2067.31 4911.36C2075.01 4898.86 2097.9 4868.82 2127.79 4848.66C2165.16 4823.45 2249.43 4829.2 2288.55 4825.89C2327.68 4822.57 2458.31 4801.64 2515.63 4800.02C2561.48 4798.73 2591.1 4811.91 2600.17 4818.66C2636.43 4818.95 2722.96 4826.23 2779.01 4853.06C2849.09 4886.6 2873.32 4868.81 2904.88 4887.79C2930.13 4902.97 2979.34 4936.77 3000.78 4951.77C3181.22 5019.92 3268.96 5124.17 3290.27 5167.77C3383.56 5175.06 3438.63 5350.16 3454.51 5436.8C3421.12 5405.37 3160.53 5420.47 3088.8 5410.7C3017.07 5400.93 2750.82 5489.99 2886.22 5470.61Z" fill="#285915"/>
<path d="M2450.66 5258.45C2391.72 5282.2 2381.13 5307.24 2383.21 5316.79C2393.31 5331.87 2420.01 5322.85 2464.48 5305.18C2500.05 5291.05 2523.62 5265.85 2530.96 5255.03C2528.75 5246.27 2509.59 5234.69 2450.66 5258.45Z" fill="#D7C5B9"/>
<path d="M2638.48 5247.5C2589.34 5262.48 2587.67 5278.91 2592.98 5285.25C2609.19 5295.82 2638.01 5276.1 2674.33 5261.19C2710.66 5246.28 2768.29 5224.18 2801.73 5216.52C2835.18 5208.86 2900.87 5198.92 2915.54 5195.7C2930.21 5192.48 2926.85 5186.77 2889.06 5177.86C2851.28 5168.95 2758.05 5182.01 2734.27 5194.06C2710.49 5206.12 2699.9 5228.78 2638.48 5247.5Z" fill="#D7C5B9"/>
<path d="M2346.66 5124.17C2300.07 5157.86 2296.96 5173.36 2301.22 5176.9C2322.7 5189.92 2441.64 5112.02 2501.33 5071.46C2561.03 5030.91 2591.35 5018.96 2623.46 5016.43C2655.57 5013.91 2697.91 5012.33 2717.35 5000.61C2736.78 4988.89 2704 4975.69 2655.31 4986.1C2606.62 4996.52 2493.02 5023.14 2465.39 5033.3C2437.77 5043.46 2404.9 5082.06 2346.66 5124.17Z" fill="#D7C5B9"/>
<path d="M2182.38 5016.43C2152.5 5042 2158.23 5057.1 2164.82 5061.45C2175.19 5067.53 2189.93 5041.98 2203.74 5029.77C2217.55 5017.57 2256.75 4977.55 2247.39 4973.35C2238.03 4969.16 2219.72 4984.48 2182.38 5016.43Z" fill="#D7C5B9"/>
<path d="M2044.15 5448.9C2039.88 5492.49 2073.45 5535.09 2090.77 5550.95C2088.42 5524.47 2085 5467.14 2090.11 5449.61C2096.51 5427.7 2145.9 5340.88 2150.07 5333.21C2154.24 5325.54 2120.18 5319.17 2108.51 5330.49C2096.84 5341.8 2049.48 5394.42 2044.15 5448.9Z" fill="#D7C5B9"/>
<path d="M1751 5260.32C1721.93 5278.07 1717.43 5303.14 1718.81 5313.45C1742.3 5317.95 1803.1 5272.08 1816.81 5258.02C1827.79 5246.77 1858.48 5238.55 1872.46 5235.84C1867.04 5233.63 1850.9 5228.21 1829.69 5224.18C1803.18 5219.15 1787.34 5238.13 1751 5260.32Z" fill="#D7C5B9"/>
<path d="M2342.1 4323.74C2428.92 4261.67 2568.7 4191.53 2691.15 4170.22C2716.72 4168.85 2770.93 4176.29 2783.25 4217C2798.65 4267.88 2816.8 4360.85 2834.29 4377.58C2851.77 4394.3 2866.95 4405.02 2890.42 4414.51C2867.73 4436.34 2806.01 4439.72 2776.77 4441.3C2747.53 4442.87 2704.49 4457.71 2678.55 4472.88C2652.61 4488.05 2627.89 4476.88 2612.3 4472.31C2596.72 4467.73 2489.55 4446.42 2451.21 4437.17C2412.88 4427.91 2365.77 4436.89 2378.31 4451.39C2390.85 4465.88 2485.23 4485.52 2521.67 4479.81C2550.83 4475.25 2595.44 4484.8 2614.09 4490.15C2589.29 4483.26 2544.02 4503.04 2515.01 4529.56C2486 4556.07 2436.51 4572.92 2401.46 4580.08C2366.41 4587.24 2268.38 4572.51 2249.81 4575C2231.24 4577.49 2134.28 4507.22 2111.93 4483.99C2089.58 4460.75 2040.27 4441.1 2031.91 4458.92C2023.55 4476.75 2056.55 4510.7 2069.32 4513.8C2082.08 4516.89 2129.12 4552.71 2151.33 4583.07C2169.1 4607.35 2209.54 4628.32 2227.53 4635.76C2189.85 4672.01 2098.41 4701.14 2057.41 4711.18C1927.06 4732.64 1848.71 4690.46 1825.83 4666.68C1663.36 4778.66 1524.53 4735.53 1475.43 4699.97C1420 4787.25 1274.27 4834.52 1258.54 4753.15C1245.95 4688.06 1348.5 4606.67 1401.35 4574.12C1388.98 4574.32 1360.19 4565.38 1343.96 4527.98C1323.68 4481.23 1343.03 4439.22 1391.67 4389.83C1430.58 4350.32 1529.45 4267.22 1574.02 4230.61C1574.87 4219.18 1579.92 4190.16 1593.39 4165.45C1610.21 4134.57 1670.64 4108.28 1696.55 4091.93C1722.45 4075.58 1805.41 4014.14 1844.53 3992.43C1875.82 3975.06 1901.07 3973.56 1909.78 3974.97C1934.99 3962.15 1997.54 3936.1 2046 3934.55C2106.58 3932.6 2116.98 3911.58 2145.65 3913.38C2168.59 3914.83 2214.82 3920.56 2235.06 3923.24C2384.51 3905.62 2482.73 3946.3 2513.16 3968.84C2580.39 3940.38 2681.43 4041.87 2723.55 4096.17C2689.14 4086.39 2514.08 4190.47 2460.89 4209.47C2407.7 4228.48 2255.29 4385.81 2342.1 4323.74Z" fill="#4A6B21"/>
<path d="M1964.22 4333.27C1931.93 4370.89 1933.59 4392.04 1938.46 4397.91C1950.88 4404.73 1966.13 4388.89 1990.58 4360.68C2010.14 4338.11 2017.41 4312.19 2018.61 4302.06C2013.93 4296.79 1996.5 4295.65 1964.22 4333.27Z" fill="#D7C5B9"/>
<path d="M2090.37 4258.22C2061.72 4286.24 2066.46 4298.22 2072.42 4300.71C2087.44 4302.2 2100.32 4278.19 2120.12 4254.82C2139.92 4231.44 2171.9 4195.43 2192.31 4178.11C2212.72 4160.79 2254.65 4130.3 2263.65 4122.8C2272.65 4115.3 2268.28 4112.56 2238.91 4119.96C2209.53 4127.36 2149.65 4169.9 2137.52 4186.79C2125.38 4203.68 2126.18 4223.18 2090.37 4258.22Z" fill="#D7C5B9"/>
<path d="M1843.95 4277.64C1823.79 4317.71 1827.2 4329.56 1831.42 4330.48C1850.97 4331.78 1905.36 4235.1 1932.14 4185.56C1958.92 4136.03 1975.62 4116.86 1996.95 4103.58C2018.28 4090.29 2047.05 4073.99 2056.3 4058.89C2065.55 4043.79 2038.1 4046.42 2008.12 4071.13C1978.13 4095.83 1909.02 4155.08 1893.54 4172.05C1878.06 4189.01 1869.16 4227.55 1843.95 4277.64Z" fill="#D7C5B9"/>
<path d="M1691.46 4262.04C1679.95 4290.48 1689.35 4298.88 1695.48 4299.52C1704.85 4300.01 1705.87 4277.01 1711.05 4263.6C1716.23 4250.19 1729 4208.38 1721.01 4208.84C1713.02 4209.3 1705.85 4226.49 1691.46 4262.04Z" fill="#D7C5B9"/>
<path d="M1751.09 4611.22C1763.8 4642.95 1802.35 4660.39 1820.04 4665.15C1808.9 4647.66 1785.94 4609.18 1783.18 4595.2C1779.74 4577.73 1782.76 4499.85 1782.89 4493.04C1783.02 4486.23 1757.15 4494.06 1753.13 4506.08C1749.11 4518.11 1735.21 4571.57 1751.09 4611.22Z" fill="#D7C5B9"/>
<path d="M1480.31 4585.93C1466.55 4608.66 1472.44 4627.64 1477.1 4634.29C1494.99 4628.96 1520.62 4575.36 1525.07 4560.69C1528.62 4548.95 1546.93 4532.23 1555.64 4525.34C1551.09 4525.75 1537.96 4527.79 1521.83 4532.63C1501.66 4538.67 1497.51 4557.5 1480.31 4585.93Z" fill="#D7C5B9"/>
</g>
<rect x="1796.38" y="3056.48" width="983.587" height="142.684" fill="#653131"/>
<path d="M3182.41 2979.03L2779.97 3199.17V3056.14L3182.41 2869.43V2979.03Z" fill="#F5EDED"/>
<path d="M2779.27 3056.85L3176.97 2870.01C3178.9 2869.1 3178.25 2866.2 3176.12 2866.2H2420.88C2420.68 2866.2 2420.48 2866.22 2420.29 2866.28L1796.16 3056.85H2779.27Z" fill="#842323"/>
<path d="M3253.32 3233.91L3029.38 3095.48L3420.26 2965.18L3644.21 3095.48L3253.32 3233.91Z" fill="#EAEAEA"/>
<path d="M3384.54 3240.13L3108.11 3162.89L3472.84 2971.21L3740.23 3025.01L3384.54 3240.13Z" fill="#F0F0F0"/>
<g filter="url(#filter14_f_0_10)">
<path d="M6509.74 3283.11H6549.74L6509.74 3243.11V3283.11ZM5988.44 3283.11V3243.11H5948.44V3283.11H5988.44ZM6549.74 4125.14V3283.11H6469.74V4125.14H6549.74ZM6469.74 4125.14V4146.89H6549.74V4125.14H6469.74ZM5948.44 4125.14V4146.89H6028.44V4125.14H5948.44ZM6509.74 3243.11H5988.44V3323.11H6509.74V3243.11ZM5948.44 3283.11V4125.14H6028.44V3283.11H5948.44Z" fill="#504646"/>
</g>
<g filter="url(#filter15_f_0_10)">
<rect x="5934.41" y="2511.35" width="603.068" height="95.1719" rx="15" fill="url(#paint9_linear_0_10)"/>
</g>
<g filter="url(#filter16_f_0_10)">
<rect x="5823.98" y="2592.73" width="859.325" height="698.824" rx="15" fill="url(#paint10_linear_0_10)"/>
</g>
<g opacity="0.25" filter="url(#filter17_f_0_10)">
<line x1="6392.93" y1="2606.52" x2="6392.93" y2="3274.31" stroke="#8F6E5F" stroke-width="10"/>
<line x1="6308.36" y1="2606.52" x2="6308.36" y2="3274.31" stroke="#8F6E5F" stroke-width="10"/>
<line x1="6122.44" y1="2606.52" x2="6122.44" y2="3274.31" stroke="#8F6E5F" stroke-width="10"/>
<line x1="6205.12" y1="2606.52" x2="6205.12" y2="3274.31" stroke="#8F6E5F" stroke-width="10"/>
<line x1="6046.46" y1="2606.52" x2="6046.46" y2="3274.31" stroke="#8F6E5F" stroke-width="10"/>
<line x1="5968.25" y1="2606.52" x2="5968.25" y2="3274.31" stroke="#8F6E5F" stroke-width="10"/>
<line x1="5901.21" y1="2606.52" x2="5901.21" y2="3274.31" stroke="#8F6E5F" stroke-width="10"/>
</g>
<g filter="url(#filter18_f_0_10)">
<rect x="6200.12" y="1389.49" width="78.6617" height="1121.86" fill="#8C726A"/>
</g>
<g style="mix-blend-mode:soft-light" filter="url(#filter19_f_0_10)">
<path d="M6586.39 1447.41L7089.35 2901.78H5436.76L5891.82 1447.41H6586.39Z" fill="url(#paint11_linear_0_10)"/>
</g>
<g style="mix-blend-mode:soft-light" opacity="0.75" filter="url(#filter20_f_0_10)">
<path d="M6471.37 916.743L6795.42 -20.2842H5730.68L6023.87 916.743H6471.37Z" fill="url(#paint12_linear_0_10)"/>
</g>
<g filter="url(#filter21_f_0_10)">
<path d="M6015.31 883.443H6461.75L6607.56 1471.03H5870.03L6015.31 883.443Z" fill="#F0DBC6"/>
</g>
<path d="M4000.84 2636.43C4077.45 2657.68 4154.57 2645.28 4183.55 2636.43L4208.75 2541.07C4131.89 2526.58 3968.33 2497.61 3929.02 2497.61C3889.7 2497.61 3847.11 2516.92 3830.73 2526.58C3801.75 2556.35 3734.71 2624.6 3698.42 2659.36C3662.14 2694.13 3680.54 2694.41 3691.46 2701.65L3818.13 2623.15C3847.11 2618.72 3924.23 2615.18 4000.84 2636.43Z" fill="#7E3730"/>
<path d="M3842.02 2734.82C3918.63 2756.07 3995.75 2743.67 4024.73 2734.82L4049.93 2639.46C3973.07 2624.97 3809.51 2596 3770.2 2596C3730.88 2596 3688.29 2615.31 3671.91 2624.97C3642.93 2654.74 3575.9 2722.99 3539.61 2757.75C3503.32 2792.52 3516.08 2815.7 3527.01 2822.94L3659.31 2721.54C3688.29 2717.11 3765.41 2713.57 3842.02 2734.82Z" fill="#7E3730"/>
<path d="M3592.52 2779.44C3593.29 2766.29 3643.37 2703.67 3668.31 2674L3713.76 2682.88C3690.03 2706.39 3639.1 2756.56 3625.19 2769.19C3611.29 2781.83 3597.62 2781.29 3592.52 2779.44Z" fill="#7E3730"/>
<path d="M3647.45 2773.39C3646.68 2760.24 3694.28 2692.42 3718.18 2660.16L3769.54 2663.92C3746.21 2689.92 3696.12 2745.46 3682.31 2759.56C3668.51 2773.67 3653.32 2774.66 3647.45 2773.39Z" fill="#7E3730"/>
<g style="mix-blend-mode:overlay" opacity="0.5">
<path d="M3592.52 2779.44C3593.29 2766.29 3643.37 2703.67 3668.31 2674L3713.76 2682.88C3690.03 2706.39 3639.1 2756.56 3625.19 2769.19C3611.29 2781.83 3597.62 2781.29 3592.52 2779.44Z" fill="url(#paint13_linear_0_10)"/>
<path d="M3647.45 2773.39C3646.68 2760.24 3694.28 2692.42 3718.18 2660.16L3769.54 2663.92C3746.21 2689.92 3696.12 2745.46 3682.31 2759.56C3668.51 2773.67 3653.32 2774.66 3647.45 2773.39Z" fill="url(#paint14_linear_0_10)"/>
<path d="M4004.64 2636.15C4081.25 2657.4 4158.37 2645 4187.35 2636.15L4212.55 2540.79C4135.69 2526.3 3972.13 2497.33 3932.82 2497.33C3893.5 2497.33 3850.91 2516.64 3834.53 2526.3C3805.55 2556.08 3738.52 2624.32 3702.23 2659.09C3665.94 2693.85 3684.34 2694.13 3695.26 2701.38L3821.93 2622.87C3850.91 2618.44 3928.03 2614.9 4004.64 2636.15Z" fill="url(#paint15_linear_0_10)"/>
<path d="M3842.82 2734.54C3919.43 2755.79 3996.55 2743.39 4025.53 2734.54L4050.73 2639.18C3973.87 2624.69 3810.31 2595.72 3771 2595.72C3731.68 2595.72 3689.09 2615.04 3672.71 2624.69C3643.73 2654.47 3576.7 2722.71 3540.41 2757.48C3504.12 2792.24 3516.89 2815.42 3527.81 2822.66L3660.11 2721.26C3689.09 2716.84 3766.21 2713.29 3842.82 2734.54Z" fill="url(#paint16_linear_0_10)"/>
</g>
<path d="M5270.1 2636.91C5316.35 2577.91 5433.55 1899.03 5210.9 1675.29C5011.74 1777.4 4919.81 1930.3 4868.41 2083.47C4817.01 2236.64 4881.26 2257.86 4868.41 2342.95C4855.56 2428.04 4678.79 2454.06 4550.3 2454.06C4421.8 2454.06 4062.02 2454.84 4062.02 2511.57C4062.02 2556.95 4051.01 2656.14 4110.97 2669.38C4170.94 2682.61 4254.76 2665.09 4511.75 2692.32C4832.99 2726.36 5212.27 2710.65 5270.1 2636.91Z" fill="url(#paint17_linear_0_10)"/>
<g filter="url(#filter22_f_0_10)">
<path d="M4675.9 956.009C4602.25 953.267 4501.21 983.41 4465.78 940.021C4489.74 785.079 4811.22 449.585 5116.48 718.1C5417.98 983.312 5158.2 1292.08 5054.03 1372.81L4944.43 1182.08C4954.02 1132.41 4767.97 959.435 4675.9 956.009Z" fill="#010101"/>
</g>
<g filter="url(#filter23_f_0_10)">
<path d="M4465.78 940.014C4482.27 833.413 4635.76 649.438 4829.35 632.467C4748.88 697.672 4585.49 854.875 4575.7 962.05C4529.07 965.61 4486.36 965.216 4465.78 940.014Z" fill="url(#paint18_linear_0_10)"/>
</g>
<path d="M4506.36 1159.91C4443.94 1083.9 4455.35 978.362 4466.73 942.077C4530.82 846.433 4799.6 894.782 4884.57 1040.46C4911.57 1086.74 4939.61 1146.16 4947.26 1180.45C4969.67 1126.23 5027.91 1027.37 5081.67 1065.78C5148.87 1113.78 5141.41 1176.45 5114.53 1224.46C5093.02 1262.86 5044.83 1316.02 5023.43 1337.8C5018.45 1365.36 5004.61 1429.18 4989.08 1464.02C4969.67 1507.56 4835.72 1565.56 4778.97 1613.56C4722.22 1661.57 4680.57 1624.99 4674.55 1586.28C4672.29 1571.73 4657.42 1561.99 4646.23 1555.99C4642.25 1559.54 4630.7 1564.52 4616.37 1555.99C4602.04 1547.46 4601.72 1548.49 4604.43 1514.67C4607.14 1480.84 4582.07 1441.52 4582.07 1441.52C4561.22 1443.67 4547.95 1436.55 4538.3 1427.75C4526.74 1417.22 4528.01 1398.12 4537.19 1385.47C4608.1 1287.76 4556.4 1220.82 4506.36 1159.91Z" fill="#7E3730" stroke="#7E3730"/>
<g style="mix-blend-mode:overlay" filter="url(#filter24_f_0_10)">
<ellipse cx="4746.74" cy="1363.57" rx="90.1396" ry="71.1104" transform="rotate(-29.1123 4746.74 1363.57)" fill="#7E5D67"/>
</g>
<path d="M4583.39 1472.87C4594.9 1460.91 4611.65 1461.61 4633.58 1472.87C4655.51 1484.14 4672.76 1493.98 4705.34 1491.21C4684.69 1502.1 4638.58 1520.26 4610.54 1520.26C4569.56 1520.26 4573.35 1483.3 4583.39 1472.87Z" fill="#4D140A"/>
<path d="M4614.78 1566.08C4598.87 1556.61 4601.59 1528.7 4607.49 1520.21C4635.53 1520.21 4678.9 1505.84 4699.56 1494.95C4691.52 1514.83 4675.08 1550.97 4653.89 1566.08C4649.47 1570.03 4630.69 1575.55 4614.78 1566.08Z" fill="#541717" stroke="#541717" stroke-width="3"/>
<g filter="url(#filter25_df_0_10)">
<circle r="212.899" transform="matrix(-0.805637 -0.592409 -0.592409 0.805637 4990.22 692.062)" fill="black"/>
<circle r="212.899" transform="matrix(-0.805637 -0.592409 -0.592409 0.805637 5217.1 798.62)" fill="black"/>
<circle r="212.899" transform="matrix(-0.805637 -0.592409 -0.592409 0.805637 4764.66 554.643)" fill="black"/>
<circle r="212.899" transform="matrix(-0.805637 -0.592409 -0.592409 0.805637 4997.72 417.544)" fill="black"/>
<circle r="212.899" transform="matrix(-0.805637 -0.592409 -0.592409 0.805637 5197.09 394.421)" fill="black"/>
<circle r="212.899" transform="matrix(-0.805637 -0.592409 -0.592409 0.805637 4859.55 394.417)" fill="black"/>
<circle r="212.899" transform="matrix(-0.805637 -0.592409 -0.592409 0.805637 5035.61 317.941)" fill="black"/>
<circle r="212.899" transform="matrix(-0.805637 -0.592409 -0.592409 0.805637 5299.8 594.923)" fill="black"/>
</g>
<path d="M4638.68 1126.35C4597.9 1126.78 4518.43 1132.83 4483.8 1144.62L4473.36 1110.33C4513.19 1096.95 4603.05 1089.74 4643.79 1097.32C4684.53 1104.9 4712.5 1125.6 4720.99 1144.05C4708.18 1133.19 4679.46 1125.92 4638.68 1126.35Z" fill="url(#paint19_linear_0_10)"/>
<path d="M4914.32 1549.82C4882.36 1548.72 4838.33 1571.88 4822.72 1579.69L5041.21 1215.62C5041.21 1426.64 5206.15 1567.34 5254.41 1613.13L5018.17 1768.83C5002.07 1699.04 4946.28 1550.92 4914.32 1549.82Z" fill="#7E3730" stroke="#7E3730"/>
<path d="M4649.85 1297.36C4610.13 1259.54 4584.48 1204.19 4585.41 1184.28C4611.14 1175.18 4715.9 1213.88 4755.06 1224.31C4702.48 1272.1 4666.17 1291.67 4649.85 1297.36Z" fill="#DCD0C2"/>
<path d="M4617.17 1204.14C4663 1201.98 4724.72 1223.4 4756.76 1224.69C4733.38 1204.14 4657.99 1183.98 4635.92 1179.77C4616.22 1176.02 4572.82 1165.57 4549.08 1171.03C4564.84 1207.14 4580.4 1205.87 4617.17 1204.14Z" fill="#251919" stroke="#251919"/>
<path d="M4646.81 1234.67C4655.14 1244 4671.28 1275.38 4666.07 1289.31C4663.64 1295.81 4657.11 1301.01 4651.18 1298.4C4619.84 1284.62 4600.49 1237.67 4594.07 1219.03C4592.2 1213.58 4621.34 1206.13 4646.81 1234.67Z" fill="url(#paint20_linear_0_10)"/>
<path d="M4642.93 1293.21C4627.79 1287.28 4614.9 1263.95 4604.54 1244.72C4602.5 1238.46 4625.51 1231.27 4641.48 1250.75C4653.38 1265.26 4657.57 1293.11 4642.93 1293.21Z" fill="black"/>
<circle cx="4611.64" cy="1237.56" r="3.91574" transform="rotate(-36.7548 4611.64 1237.56)" fill="#F4F4F4"/>
<path d="M4755.06 1224.31C4702.48 1272.1 4666.93 1291.67 4650.61 1297.36C4648.11 1299.17 4642.73 1304.51 4641.29 1311.37C4664.29 1298.65 4692.84 1281.4 4709.77 1266.62C4726.7 1251.84 4750.83 1229.55 4755.06 1224.31Z" fill="#251919" stroke="#251919"/>
<ellipse cx="4659.87" cy="1237.12" rx="17.976" ry="6.58803" transform="rotate(-21.424 4659.87 1237.12)" fill="#F4F4F4"/>
<path d="M4413.53 3531.56C4312.42 3583.63 4371.4 3795.04 4413.53 3894.24L5331.66 4467.4C5374.87 4453.14 5466.57 4398.52 5487.79 4294.12C5504.64 4256.92 5231.51 4098.83 5092.84 4024.43C5261.35 3981.03 5669.99 3870.99 5956.46 3777.99C6242.93 3685 6153.06 3357.96 6072.32 3206.07C5844.83 3280.47 5408.8 3268.07 5219.23 3252.57C4992.79 3323.87 4514.64 3479.48 4413.53 3531.56Z" fill="#45423E"/>
<path d="M4822.51 2248.76C4793.52 2125.84 5024.09 1663.4 5156.65 1514.71C5787.42 1992.87 5665.4 2776.31 6090.08 3217.94C5856.26 3286.09 5260.64 3317.83 5223.38 3286.09C5143.4 3217.94 5076.48 2601.4 5058.56 2530.22C5029.9 2482.77 4874.15 2467.73 4822.51 2248.76Z" fill="#0E5E57"/>
<path d="M5389.3 4923.07C5267.12 4833.47 5039.72 4654.94 4941.29 4576.88C4982.02 4503.9 5084.86 4341.06 5170.39 4385.86C5277.3 4441.86 5455.48 4650.59 5542.03 4752.41C5611.27 4833.87 5679.49 4943.43 5704.94 4973.98C5664.21 5035.07 5603.12 5070.7 5577.67 5080.89C5565.79 5065.61 5511.48 5012.67 5389.3 4923.07Z" fill="#7E3730"/>
<path d="M5526.37 5282.98C5532.32 5215.6 5558.57 5114.55 5570.96 5072.44C5633.48 5065.33 5672.07 4996.05 5696.35 4974.88C5700.8 4987.02 5764.48 5021.16 5790.23 5056.86C5815.99 5092.57 5780.22 5184.4 5721.96 5212.75C5679.94 5233.19 5662.6 5282.98 5635.36 5334.99C5608.11 5387.01 5526.37 5463.79 5489.22 5436.55C5452.07 5409.3 5518.94 5367.19 5526.37 5282.98Z" fill="#D0D0D0"/>
<path d="M5545.49 4891.4C5456.1 4769.07 5293.29 4530.16 5223.06 4426C5283.93 4368.75 5431.18 4244.6 5499.17 4313.16C5584.16 4398.85 5649.67 4493 5701.39 4616.22C5742.77 4714.79 5823.39 4984.9 5838.42 5021.72C5781.13 5067.64 5704.69 5096.76 5677.35 5098.77C5670.64 5080.62 5634.88 5013.74 5545.49 4891.4Z" fill="url(#paint21_linear_0_10)"/>
<g style="mix-blend-mode:soft-light" filter="url(#filter26_f_0_10)">
<path d="M5505.75 4319.95C5495.39 4310.33 5481.69 4301.14 5476.14 4297.74C5552.61 4382.24 5656.14 4542.27 5683.67 4592.32C5705.69 4632.35 5757.9 4780.81 5781.25 4850.03C5771.24 4816.26 5736.09 4681.64 5675.96 4557.68C5615.83 4433.73 5518.7 4331.97 5505.75 4319.95Z" fill="#E8E9B3"/>
<path d="M5505.75 4319.95C5495.39 4310.33 5481.69 4301.14 5476.14 4297.74C5552.61 4382.24 5656.14 4542.27 5683.67 4592.32C5705.69 4632.35 5757.9 4780.81 5781.25 4850.03C5771.24 4816.26 5736.09 4681.64 5675.96 4557.68C5615.83 4433.73 5518.7 4331.97 5505.75 4319.95Z" stroke="#E8E9B3"/>
</g>
<path d="M6206.87 3642.31C6228.08 3511.22 6166.4 3248.58 6049.14 3172.92C5785.74 3125.76 5480 3213.41 5147.87 3328.32C5042.47 3364.79 4494.02 3636.67 4340.8 3768.78C4209.7 3881.82 4207.67 4087.85 4472.79 4257.57C4684.88 4393.34 4896.98 4563.84 4976.51 4632.12C5172.7 4632.12 5296.86 4487.76 5334.42 4415.58C5265.49 4312.58 5014.07 4115.17 4896.98 4029.33C4947.79 4007.87 5123.65 3957.93 5420.58 3929.84C5791.75 3894.73 6153.85 3970.04 6206.87 3642.31Z" fill="#413F3C"/>
<path d="M5395.28 2765.45C5441.54 2706.45 5447.52 1867 5224.88 1643.26C5025.72 1745.37 4993.59 1813.44 4942.2 1966.61C4890.8 2119.78 5006.44 2386.4 4993.59 2471.5C4980.75 2556.59 4620.96 2607.65 4492.47 2607.65C4363.97 2607.65 4004.19 2550.92 4004.19 2607.65C4004.19 2653.03 3993.18 2752.22 4053.14 2765.45C4113.11 2778.69 4196.93 2818.68 4453.92 2845.91C4775.15 2879.94 5337.46 2839.2 5395.28 2765.45Z" fill="url(#paint22_linear_0_10)"/>
<ellipse cx="4631.63" cy="1545.69" rx="14.3568" ry="7.8781" transform="rotate(-14.9609 4631.63 1545.69)" fill="#702017"/>
<g style="mix-blend-mode:soft-light" filter="url(#filter27_df_0_10)">
<path d="M4645.93 1105.41C4627.66 1102.6 4571.86 1113.91 4546.24 1119.91L4550.63 1130.89C4574.87 1127.73 4614.9 1119.91 4631.88 1116.39C4655.42 1113.58 4696.44 1131.33 4714.01 1140.55L4692.49 1123.86C4680.54 1116.48 4656.47 1108.49 4645.93 1105.41Z" fill="#DEBF90"/>
<path d="M4742.93 1326.3C4677.33 1221.96 4582.38 1160.25 4516.51 1174.06C4523.13 1181.99 4539.22 1202.34 4550.63 1220.29C4559.81 1239.31 4576.71 1283.22 4570.84 1306.71C4567.58 1323.67 4556.74 1362.3 4539.52 1381.09C4532.34 1390.87 4522.3 1414.36 4539.52 1430.02C4545.56 1435.07 4562.52 1444.4 4582.09 1441.27C4585.84 1448.12 4593.54 1462.71 4594.32 1466.23C4591.71 1466.37 4585.18 1468.86 4579.93 1477.68C4576.57 1483.55 4572.31 1497.95 4582.09 1508.67C4585.48 1512.78 4595 1520.85 4605.92 1520.22C4602.68 1525.12 4597.84 1539.12 4604.35 1555.93C4607.85 1564.59 4621.99 1579.5 4650.56 1569.84C4652.13 1568.88 4655.97 1566.38 4658.7 1564.06C4662.72 1567.39 4671.04 1575.14 4672.09 1579.56C4673.4 1585.07 4676.35 1609.27 4695.88 1625.4C4720.39 1629.8 4742.96 1626.75 4761.52 1615.08C4789.52 1597.48 4768.32 1520.62 4769.4 1477.68C4770.8 1421.7 4785.24 1393.61 4742.93 1326.3Z" fill="#DEBF90"/>
</g>
<g style="mix-blend-mode:soft-light" opacity="0.4" filter="url(#filter28_df_0_10)">
<path d="M4550.63 1220.29C4539.22 1202.34 4523.13 1181.99 4516.51 1174.06C4502.22 1158.72 4470.62 1110.85 4458.49 1042.13C4455.68 1025.28 4453.27 980.815 4466.07 937.694C4478.05 923.114 4518.04 893.06 4582.09 889.488C4604.32 899.533 4721.57 931.274 4734.97 1020.57C4739.83 1071.72 4748.9 1191.82 4761.52 1220.29C4777.3 1255.88 4765.14 1421.53 4769.4 1477.68C4768.32 1520.62 4789.52 1597.48 4761.52 1615.08C4742.96 1626.75 4720.39 1629.8 4695.88 1625.4C4676.35 1609.27 4673.4 1585.07 4672.09 1579.56C4671.04 1575.15 4662.72 1567.39 4658.7 1564.07C4655.97 1566.38 4652.13 1568.88 4650.56 1569.84C4621.99 1579.5 4607.85 1564.59 4604.35 1555.93C4597.84 1539.12 4602.68 1525.12 4605.92 1520.22C4595 1520.85 4585.48 1512.78 4582.09 1508.67C4572.31 1497.95 4576.57 1483.55 4579.93 1477.68C4585.18 1468.86 4591.71 1466.37 4594.32 1466.23C4593.54 1462.71 4585.84 1448.12 4582.09 1441.27C4562.52 1444.4 4545.56 1435.08 4539.52 1430.02C4522.3 1414.36 4532.34 1390.87 4539.52 1381.09C4556.74 1362.3 4567.58 1323.67 4570.84 1306.71C4576.71 1283.22 4559.81 1239.31 4550.63 1220.29Z" fill="url(#paint23_linear_0_10)"/>
</g>
<g style="mix-blend-mode:soft-light" filter="url(#filter29_f_0_10)">
<path d="M4913.81 1547.64C4913.81 1547.64 4929.08 1547.64 4968.06 1623.68C4981.77 1652.97 4998.04 1711.12 5009.13 1736.06C4962.71 1815.92 4836.89 2067.16 4824.16 2179.24C4815.69 2205.77 4811.47 2278.58 4862.36 2357.54C4879.51 2318.91 4913.81 2219.59 4913.81 2131.31C4913.81 2020.97 4998.12 1834.4 5090.95 1661.63C5087.25 1654.56 5083.19 1647.49 5078.79 1640.48C5029.87 1562.68 4956.01 1521.11 4913.81 1547.64Z" fill="#DEBF90"/>
</g>
<g filter="url(#filter30_f_0_10)">
<circle r="78.9184" transform="matrix(0.686234 0.727381 0.727381 -0.686234 4761.41 257.002)" fill="#916E5B" fill-opacity="0.3"/>
</g>
<g filter="url(#filter31_f_0_10)">
<circle r="78.9184" transform="matrix(0.686234 0.727381 0.727381 -0.686234 4656.17 646.123)" fill="#916E5B" fill-opacity="0.3"/>
</g>
<g filter="url(#filter32_f_0_10)">
<circle r="78.9184" transform="matrix(0.686234 0.727381 0.727381 -0.686234 4711.16 565.412)" fill="#916E5B" fill-opacity="0.3"/>
</g>
<g filter="url(#filter33_f_0_10)">
<circle r="78.9184" transform="matrix(0.686234 0.727381 0.727381 -0.686234 4599.6 571.908)" fill="#916E5B" fill-opacity="0.3"/>
</g>
<g filter="url(#filter34_f_0_10)">
<circle r="78.9184" transform="matrix(0.686234 0.727381 0.727381 -0.686234 4807.9 655.865)" fill="#916E5B" fill-opacity="0.3"/>
</g>
<g filter="url(#filter35_f_0_10)">
<circle r="78.9184" transform="matrix(0.686234 0.727381 0.727381 -0.686234 4807.9 480.123)" fill="#916E5B" fill-opacity="0.3"/>
</g>
<g filter="url(#filter36_f_0_10)">
<circle r="78.9184" transform="matrix(0.686234 0.727381 0.727381 -0.686234 4829.28 389.416)" fill="#916E5B" fill-opacity="0.3"/>
</g>
<g filter="url(#filter37_f_0_10)">
<circle r="78.9184" transform="matrix(0.686234 0.727381 0.727381 -0.686234 4940.84 680.22)" fill="#916E5B" fill-opacity="0.15"/>
</g>
<g filter="url(#filter38_f_0_10)">
<circle r="78.9184" transform="matrix(0.686234 0.727381 0.727381 -0.686234 4872.97 365.314)" fill="#916E5B" fill-opacity="0.15"/>
</g>
<g filter="url(#filter39_f_0_10)">
<circle r="78.9184" transform="matrix(0.686234 0.727381 0.727381 -0.686234 4876.22 227.482)" fill="#916E5B" fill-opacity="0.15"/>
</g>
<g filter="url(#filter40_f_0_10)">
<circle r="78.9184" transform="matrix(0.686234 0.727381 0.727381 -0.686234 5365.97 718.435)" fill="#916E5B" fill-opacity="0.35"/>
</g>
<g filter="url(#filter41_f_0_10)">
<circle r="78.9184" transform="matrix(0.686234 0.727381 0.727381 -0.686234 5474.28 652.619)" fill="#916E5B" fill-opacity="0.35"/>
</g>
<g filter="url(#filter42_f_0_10)">
<circle r="78.9184" transform="matrix(0.686234 0.727381 0.727381 -0.686234 5399.42 815.51)" fill="#916E5B" fill-opacity="0.35"/>
</g>
<g filter="url(#filter43_f_0_10)">
<circle r="78.9184" transform="matrix(0.686234 0.727381 0.727381 -0.686234 5328.66 920.611)" fill="#916E5B" fill-opacity="0.35"/>
</g>
<g filter="url(#filter44_f_0_10)">
<circle r="78.9184" transform="matrix(0.686234 0.727381 0.727381 -0.686234 5480.78 537.81)" fill="#916E5B" fill-opacity="0.35"/>
</g>
<g filter="url(#filter45_f_0_10)">
<circle r="78.9184" transform="matrix(0.686234 0.727381 0.727381 -0.686234 5436.97 444.107)" fill="#916E5B" fill-opacity="0.35"/>
</g>
<g filter="url(#filter46_f_0_10)">
<circle r="78.9184" transform="matrix(0.686234 0.727381 0.727381 -0.686234 4603.72 558.916)" fill="#916E5B" fill-opacity="0.35"/>
</g>
<g filter="url(#filter47_f_0_10)">
<circle r="78.9184" transform="matrix(0.686234 0.727381 0.727381 -0.686234 4569.34 450.603)" fill="#916E5B" fill-opacity="0.35"/>
</g>
<g filter="url(#filter48_f_0_10)">
<circle r="78.9184" transform="matrix(0.686234 0.727381 0.727381 -0.686234 4673.47 429.498)" fill="#916E5B" fill-opacity="0.35"/>
</g>
<g filter="url(#filter49_f_0_10)">
<circle r="78.9184" transform="matrix(0.686234 0.727381 0.727381 -0.686234 4717.72 329.299)" fill="#916E5B" fill-opacity="0.35"/>
</g>
<path d="M5631.27 5307.82C5637.21 5240.45 5663.47 5139.39 5675.85 5097.28C5738.37 5090.18 5808.07 5024.76 5832.35 5003.59C5836.8 5015.73 5869.37 5046 5895.13 5081.71C5954.35 5163.82 5885.11 5209.25 5826.86 5237.59C5784.83 5258.04 5767.5 5307.82 5740.25 5359.84C5713.01 5411.85 5631.27 5488.64 5594.11 5461.39C5556.96 5434.15 5623.84 5392.04 5631.27 5307.82Z" fill="#C4C4C4"/>
<g style="mix-blend-mode:soft-light" filter="url(#filter50_f_0_10)">
<path d="M5401.52 1810.7C5309.13 1698.23 5205.44 1596.63 5156.65 1514.71C5690.2 1919.18 5693.8 2540.94 5912.46 2973.98C5956.06 3054.8 6008.71 3122.23 6074.16 3190.3C6101.17 3215.7 6178.35 3312.29 6203.2 3501.93C6225.11 3669.09 6154.93 3781.69 6111.75 3817.67C6137.84 3777.19 6181.35 3679.31 6181.35 3601.59C6181.35 3504.44 6129.27 3319.25 6074.16 3262.8C6030.08 3217.64 5976.99 3146.53 5955.96 3116.62C5866.5 2993.16 5783.71 2783.65 5740.09 2642.7C5674.81 2431.81 5517.01 1951.3 5401.52 1810.7Z" fill="#E8E9B3"/>
</g>
<g style="mix-blend-mode:multiply" filter="url(#filter51_f_0_10)">
<path d="M4606.62 1423.4C4583.7 1428.07 4552.14 1417.81 4533.05 1408.96C4535.06 1437.8 4569.79 1441.98 4581.47 1440.49C4590.81 1439.29 4602.13 1428.6 4606.62 1423.4Z" fill="#D0CDCD"/>
</g>
<path opacity="0.2" d="M4616.67 1103.4C4550.06 1113.82 4512.7 1185.33 4533.21 1263.11C4543.7 1302.88 4567.29 1336.59 4596.74 1358.65L4716.51 1134.87C4677.73 1100.48 4633.79 1099.56 4616.67 1103.4Z" fill="#C4C4C4"/>
<path d="M4769.48 1226.15C4789.52 1302.11 4752.79 1370.39 4689.69 1380.26C4646.86 1386.96 4601.77 1365.37 4570.75 1326.9C4556.04 1308.66 4544.58 1286.69 4538.15 1262.34C4518.12 1186.39 4554.85 1118.11 4617.95 1108.24C4681.04 1098.37 4749.45 1150.2 4769.48 1226.15Z" stroke="#8A6C6C" stroke-width="10"/>
<path fill-rule="evenodd" clip-rule="evenodd" d="M4981.28 1115.36L4763.82 1219.4L4759.5 1210.38C4759.5 1210.38 4990.04 1100.09 4992.56 1099.73C4990.86 1102.04 4981.28 1115.36 4981.28 1115.36Z" fill="#8A6C6C"/>
<g filter="url(#filter52_f_0_10)">
<path d="M4597.48 1356.54C4552.75 1315.34 4516.53 1256.31 4539.35 1173.24" stroke="url(#paint24_radial_0_10)" stroke-width="5"/>
</g>
<g style="mix-blend-mode:soft-light" filter="url(#filter53_f_0_10)">
<path d="M7111.85 4260.94L4094.54 -141.375H665.018V5547.01H7447.73L7111.85 4260.94Z" fill="url(#paint25_linear_0_10)"/>
</g>
<path d="M2614.15 2054.73L2910.72 2843.07L3735.96 2527.47L3466.09 1956.12L2614.15 2054.73Z" fill="#FDF5DF"/>
<path d="M2817.43 2414.89L2730.25 2185.3L3199.13 2115.7L3284.86 2296.69L2817.43 2414.89Z" stroke="#E7E7E7" stroke-width="10"/>
<path d="M3190.57 2526.2L3082.93 2276.96L3537.83 2172.89L3643.54 2390.55L3190.57 2526.2Z" fill="#FDF5DF" stroke="#E7E7E7" stroke-width="10"/>
<path d="M2807.96 2232.36L3118.04 2177.84M2872.7 2283.47L3015.81 2259.62M3175.96 2324.36L3482.63 2259.62M3193.19 2361.77L3457.33 2303.89M3208.03 2397.38L3413.23 2350.43M3367.02 2405.45L3531.53 2361.77" stroke="#DBDBDB" stroke-width="10"/>
<g style="mix-blend-mode:soft-light" filter="url(#filter54_f_0_10)">
<path d="M10703 789.65C10703 1646.42 10766.6 2340.97 8760.4 2340.97C6910.91 2340.97 6499.7 1646.42 6499.7 789.649C6499.7 -67.1202 7687.54 -761.668 8760.4 -761.668C9833.26 -761.668 10703 -67.1191 10703 789.65Z" fill="url(#paint26_linear_0_10)" fill-opacity="0.4"/>
</g>
<path d="M6084.62 3101.13C5884.54 3383.04 5467.68 3468.54 5051.8 3594.27C5066.48 3641.55 5216.28 3688.2 5698.07 3496.65C6300.3 3257.21 6338.34 2639.38 6386.69 2461.04C6425.36 2318.37 6724.16 2293.65 6868.72 2299.12L6831.08 2268.05C6816.85 2256.31 6799.3 2249.08 6780.87 2248.16C6560.63 2237.11 6416.04 2308.26 6338.34 2418.36C6219.16 2587.25 6191.01 2975.4 6084.62 3101.13Z" fill="#747474"/>
<path d="M5115.92 3566.38C4783.21 3666.97 4767.73 3909.72 4767.73 4020.96C4767.73 4020.96 4764.19 4350.37 4940.06 4350.37H6631.54C6728.64 4350.37 6807.56 4273.36 6810.76 4176.32L6872.31 2313.11C6872.87 2296.16 6859.29 2282.1 6842.33 2282.07C6678.04 2281.71 6513.89 2281.91 6402.46 2390.47C6254.41 2534.73 6213.23 2978.91 6106.84 3104.64C5906.76 3386.56 5531.81 3440.65 5115.92 3566.38Z" fill="url(#paint27_linear_0_10)"/>
<path fill-rule="evenodd" clip-rule="evenodd" d="M6843.85 3775.75V5278.81H6763.85V4419.23H5072.98V5278.81H4992.98V4056.52C4992.98 4007.83 5033.38 3969.3 5081.73 3971.06C5286.23 3978.51 5630.65 3967.38 5966.46 3937.86C6303.91 3908.2 6625.96 3860.49 6789.35 3796.94L6843.85 3775.75ZM5072.98 4339.23H6763.85V3890.53C6579.13 3948.82 6277.61 3990.82 5973.47 4017.55C5635.56 4047.25 5287.65 4058.62 5078.82 4051.01C5075.46 4050.89 5072.98 4053.46 5072.98 4056.52V4339.23Z" fill="#CE8619"/>
<g style="mix-blend-mode:soft-light" opacity="0.4">
<path d="M4992.98 4056.52C4992.98 4007.83 5033.38 3969.3 5081.73 3971.06C5286.23 3978.51 5630.65 3967.38 5966.46 3937.86C6303.91 3908.2 6625.96 3860.49 6789.35 3796.94L6843.85 3775.75C6843.85 3852.57 6790.51 3884.28 6763.85 3890.53C6579.13 3948.82 6277.61 3990.82 5973.47 4017.55C5635.56 4047.25 5287.65 4058.62 5078.82 4051.01C5075.46 4050.89 5072.98 4053.46 5072.98 4056.52V5200.47H4992.97L4992.98 4056.52Z" fill="url(#paint28_linear_0_10)"/>
</g>
<g opacity="0.06" filter="url(#filter55_i_0_10)">
<path d="M1964.27 3101.79V3157.79H1987.79C2005.79 3157.79 2018.11 3146.35 2018.11 3129.79C2018.11 3113.15 2005.95 3101.79 1988.35 3101.79H1964.27ZM1978.51 3113.15H1988.03C1997.07 3113.15 2003.63 3119.95 2003.63 3129.87C2003.63 3139.71 1997.39 3146.43 1988.67 3146.43H1978.51V3113.15ZM2075.04 3112.99V3101.79H2031.2V3157.79H2075.92V3146.59H2045.44V3135.31H2072.16V3124.11H2045.44V3112.99H2075.04ZM2112.23 3101.15C2098.79 3101.15 2089.91 3107.71 2089.91 3118.03C2089.91 3137.87 2119.51 3131.95 2119.51 3141.87C2119.51 3145.07 2116.71 3146.75 2112.23 3146.75C2106.39 3146.75 2097.75 3143.39 2091.99 3138.35L2086.47 3149.31C2093.11 3154.75 2102.71 3158.27 2112.07 3158.27C2124.55 3158.27 2134.47 3152.35 2134.47 3141.15C2134.47 3120.91 2104.87 3126.43 2104.87 3116.75C2104.87 3114.03 2107.35 3112.67 2111.03 3112.67C2115.59 3112.67 2123.03 3115.07 2128.95 3118.51L2134.31 3107.39C2128.55 3103.63 2120.31 3101.15 2112.23 3101.15ZM2162.03 3157.79V3101.79H2147.79V3157.79H2162.03ZM2216.06 3129.31V3143.79C2212.7 3145.47 2209.02 3146.51 2206.14 3146.51C2196.86 3146.51 2189.74 3139.31 2189.74 3129.79C2189.74 3120.43 2196.78 3113.23 2205.98 3113.23C2211.18 3113.23 2216.86 3115.55 2220.94 3119.31L2228.94 3109.63C2223.18 3104.51 2214.38 3101.31 2206.06 3101.31C2188.38 3101.31 2175.18 3113.55 2175.18 3129.79C2175.18 3146.11 2188.06 3158.43 2205.1 3158.43C2212.94 3158.43 2222.38 3155.39 2228.38 3151.15V3129.31H2216.06ZM2295.59 3157.79V3101.79H2282.31V3136.35L2256.47 3101.79H2243.91V3157.79H2257.27V3123.31L2283.03 3157.79H2295.59ZM2356.12 3157.79V3101.71H2331.56V3113.15H2341.88V3157.79H2356.12ZM2397.73 3101.31C2381.73 3101.31 2372.85 3111.47 2372.85 3129.71C2372.85 3148.03 2381.73 3158.19 2397.73 3158.19C2413.57 3158.19 2422.45 3148.03 2422.45 3129.71C2422.45 3111.47 2413.57 3101.31 2397.73 3101.31ZM2397.73 3111.71C2404.77 3111.71 2407.89 3116.91 2407.89 3129.71C2407.89 3142.51 2404.77 3147.79 2397.73 3147.79C2390.53 3147.79 2387.49 3142.51 2387.49 3129.71C2387.49 3116.91 2390.53 3111.71 2397.73 3111.71ZM2456.54 3157.79V3101.71H2431.98V3113.15H2442.3V3157.79H2456.54Z" fill="white"/>
</g>
<g style="mix-blend-mode:soft-light" opacity="0.2">
<rect x="4" y="20.3984" width="9244" height="5198.57" fill="url(#paint29_linear_0_10)"/>
</g>
<g style="mix-blend-mode:soft-light" opacity="0.3">
<rect x="254" y="7.98047" width="8771.41" height="5235.42" fill="url(#paint30_linear_0_10)"/>
</g>
</g>
<defs>
<filter id="filter0_d_0_10" x="0" y="0" width="6490" height="5227" filterUnits="userSpaceOnUse" color-interpolation-filters="sRGB">
<feFlood flood-opacity="0" result="BackgroundImageFix"/>
<feColorMatrix in="SourceAlpha" type="matrix" values="0 0 0 0 0 0 0 0 0 0 0 0 0 0 0 0 0 0 127 0" result="hardAlpha"/>
<feOffset dy="4"/>
<feGaussianBlur stdDeviation="2"/>
<feComposite in2="hardAlpha" operator="out"/>
<feColorMatrix type="matrix" values="0 0 0 0 0 0 0 0 0 0 0 0 0 0 0 0 0 0 0.25 0"/>
<feBlend mode="normal" in2="BackgroundImageFix" result="effect1_dropShadow_0_10"/>
<feBlend mode="normal" in="SourceGraphic" in2="effect1_dropShadow_0_10" result="shape"/>
</filter>
<filter id="filter1_f_0_10" x="6203.47" y="3632.97" width="6010.44" height="2485.88" filterUnits="userSpaceOnUse" color-interpolation-filters="sRGB">
<feFlood flood-opacity="0" result="BackgroundImageFix"/>
<feBlend mode="normal" in="SourceGraphic" in2="BackgroundImageFix" result="shape"/>
<feGaussianBlur stdDeviation="40" result="effect1_foregroundBlur_0_10"/>
</filter>
<filter id="filter2_f_0_10" x="562.466" y="-510.119" width="3404.92" height="3096.76" filterUnits="userSpaceOnUse" color-interpolation-filters="sRGB">
<feFlood flood-opacity="0" result="BackgroundImageFix"/>
<feBlend mode="normal" in="SourceGraphic" in2="BackgroundImageFix" result="shape"/>
<feGaussianBlur stdDeviation="75" result="effect1_foregroundBlur_0_10"/>
</filter>
<filter id="filter3_f_0_10" x="1175.11" y="-357.325" width="2952.25" height="3880.57" filterUnits="userSpaceOnUse" color-interpolation-filters="sRGB">
<feFlood flood-opacity="0" result="BackgroundImageFix"/>
<feBlend mode="normal" in="SourceGraphic" in2="BackgroundImageFix" result="shape"/>
<feGaussianBlur stdDeviation="75" result="effect1_foregroundBlur_0_10"/>
</filter>
<filter id="filter4_f_0_10" x="198.052" y="919.814" width="2888.08" height="2524.74" filterUnits="userSpaceOnUse" color-interpolation-filters="sRGB">
<feFlood flood-opacity="0" result="BackgroundImageFix"/>
<feBlend mode="normal" in="SourceGraphic" in2="BackgroundImageFix" result="shape"/>
<feGaussianBlur stdDeviation="75" result="effect1_foregroundBlur_0_10"/>
</filter>
<filter id="filter5_f_0_10" x="803.601" y="1041.35" width="2409.79" height="3148.23" filterUnits="userSpaceOnUse" color-interpolation-filters="sRGB">
<feFlood flood-opacity="0" result="BackgroundImageFix"/>
<feBlend mode="normal" in="SourceGraphic" in2="BackgroundImageFix" result="shape"/>
<feGaussianBlur stdDeviation="75" result="effect1_foregroundBlur_0_10"/>
</filter>
<filter id="filter6_f_0_10" x="1378.36" y="-217.832" width="2519.4" height="5463.72" filterUnits="userSpaceOnUse" color-interpolation-filters="sRGB">
<feFlood flood-opacity="0" result="BackgroundImageFix"/>
<feBlend mode="normal" in="SourceGraphic" in2="BackgroundImageFix" result="shape"/>
<feGaussianBlur stdDeviation="10" result="effect1_foregroundBlur_0_10"/>
</filter>
<filter id="filter7_f_0_10" x="2434.48" y="-369.793" width="80" height="4777.42" filterUnits="userSpaceOnUse" color-interpolation-filters="sRGB">
<feFlood flood-opacity="0" result="BackgroundImageFix"/>
<feBlend mode="normal" in="SourceGraphic" in2="BackgroundImageFix" result="shape"/>
<feGaussianBlur stdDeviation="10" result="effect1_foregroundBlur_0_10"/>
</filter>
<filter id="filter8_f_0_10" x="442.139" y="-4106.5" width="4325.1" height="8976.73" filterUnits="userSpaceOnUse" color-interpolation-filters="sRGB">
<feFlood flood-opacity="0" result="BackgroundImageFix"/>
<feBlend mode="normal" in="SourceGraphic" in2="BackgroundImageFix" result="shape"/>
<feGaussianBlur stdDeviation="30" result="effect1_foregroundBlur_0_10"/>
</filter>
<filter id="filter9_f_0_10" x="3060.03" y="2695.57" width="1595.7" height="2481.31" filterUnits="userSpaceOnUse" color-interpolation-filters="sRGB">
<feFlood flood-opacity="0" result="BackgroundImageFix"/>
<feBlend mode="normal" in="SourceGraphic" in2="BackgroundImageFix" result="shape"/>
<feGaussianBlur stdDeviation="3.5" result="effect1_foregroundBlur_0_10"/>
</filter>
<filter id="filter10_f_0_10" x="1568" y="3339.72" width="2087.25" height="2295.3" filterUnits="userSpaceOnUse" color-interpolation-filters="sRGB">
<feFlood flood-opacity="0" result="BackgroundImageFix"/>
<feBlend mode="normal" in="SourceGraphic" in2="BackgroundImageFix" result="shape"/>
<feGaussianBlur stdDeviation="3.5" result="effect1_foregroundBlur_0_10"/>
</filter>
<filter id="filter11_f_0_10" x="1483.55" y="2269.11" width="3661.96" height="1244.6" filterUnits="userSpaceOnUse" color-interpolation-filters="sRGB">
<feFlood flood-opacity="0" result="BackgroundImageFix"/>
<feBlend mode="normal" in="SourceGraphic" in2="BackgroundImageFix" result="shape"/>
<feGaussianBlur stdDeviation="3.5" result="effect1_foregroundBlur_0_10"/>
</filter>
<filter id="filter12_f_0_10" x="2473.18" y="966.414" width="2433.63" height="2030.82" filterUnits="userSpaceOnUse" color-interpolation-filters="sRGB">
<feFlood flood-opacity="0" result="BackgroundImageFix"/>
<feBlend mode="normal" in="SourceGraphic" in2="BackgroundImageFix" result="shape"/>
<feGaussianBlur stdDeviation="75" result="effect1_foregroundBlur_0_10"/>
</filter>
<filter id="filter13_f_0_10" x="-1596.61" y="2457.87" width="5203.1" height="4720.7" filterUnits="userSpaceOnUse" color-interpolation-filters="sRGB">
<feFlood flood-opacity="0" result="BackgroundImageFix"/>
<feBlend mode="normal" in="SourceGraphic" in2="BackgroundImageFix" result="shape"/>
<feGaussianBlur stdDeviation="75" result="effect1_foregroundBlur_0_10"/>
</filter>
<filter id="filter14_f_0_10" x="5908.44" y="3203.11" width="681.296" height="983.772" filterUnits="userSpaceOnUse" color-interpolation-filters="sRGB">
<feFlood flood-opacity="0" result="BackgroundImageFix"/>
<feBlend mode="normal" in="SourceGraphic" in2="BackgroundImageFix" result="shape"/>
<feGaussianBlur stdDeviation="20" result="effect1_foregroundBlur_0_10"/>
</filter>
<filter id="filter15_f_0_10" x="5894.41" y="2471.35" width="683.068" height="175.172" filterUnits="userSpaceOnUse" color-interpolation-filters="sRGB">
<feFlood flood-opacity="0" result="BackgroundImageFix"/>
<feBlend mode="normal" in="SourceGraphic" in2="BackgroundImageFix" result="shape"/>
<feGaussianBlur stdDeviation="20" result="effect1_foregroundBlur_0_10"/>
</filter>
<filter id="filter16_f_0_10" x="5783.98" y="2552.73" width="939.325" height="778.824" filterUnits="userSpaceOnUse" color-interpolation-filters="sRGB">
<feFlood flood-opacity="0" result="BackgroundImageFix"/>
<feBlend mode="normal" in="SourceGraphic" in2="BackgroundImageFix" result="shape"/>
<feGaussianBlur stdDeviation="20" result="effect1_foregroundBlur_0_10"/>
</filter>
<filter id="filter17_f_0_10" x="5876.21" y="2586.52" width="740.602" height="707.791" filterUnits="userSpaceOnUse" color-interpolation-filters="sRGB">
<feFlood flood-opacity="0" result="BackgroundImageFix"/>
<feBlend mode="normal" in="SourceGraphic" in2="BackgroundImageFix" result="shape"/>
<feGaussianBlur stdDeviation="10" result="effect1_foregroundBlur_0_10"/>
</filter>
<filter id="filter18_f_0_10" x="6160.12" y="1349.49" width="158.662" height="1201.86" filterUnits="userSpaceOnUse" color-interpolation-filters="sRGB">
<feFlood flood-opacity="0" result="BackgroundImageFix"/>
<feBlend mode="normal" in="SourceGraphic" in2="BackgroundImageFix" result="shape"/>
<feGaussianBlur stdDeviation="20" result="effect1_foregroundBlur_0_10"/>
</filter>
<filter id="filter19_f_0_10" x="5236.76" y="1247.41" width="2052.59" height="1854.37" filterUnits="userSpaceOnUse" color-interpolation-filters="sRGB">
<feFlood flood-opacity="0" result="BackgroundImageFix"/>
<feBlend mode="normal" in="SourceGraphic" in2="BackgroundImageFix" result="shape"/>
<feGaussianBlur stdDeviation="100" result="effect1_foregroundBlur_0_10"/>
</filter>
<filter id="filter20_f_0_10" x="5530.68" y="-220.284" width="1464.73" height="1337.03" filterUnits="userSpaceOnUse" color-interpolation-filters="sRGB">
<feFlood flood-opacity="0" result="BackgroundImageFix"/>
<feBlend mode="normal" in="SourceGraphic" in2="BackgroundImageFix" result="shape"/>
<feGaussianBlur stdDeviation="100" result="effect1_foregroundBlur_0_10"/>
</filter>
<filter id="filter21_f_0_10" x="5830.03" y="843.443" width="817.527" height="667.589" filterUnits="userSpaceOnUse" color-interpolation-filters="sRGB">
<feFlood flood-opacity="0" result="BackgroundImageFix"/>
<feBlend mode="normal" in="SourceGraphic" in2="BackgroundImageFix" result="shape"/>
<feGaussianBlur stdDeviation="20" result="effect1_foregroundBlur_0_10"/>
</filter>
<filter id="filter22_f_0_10" x="4458.78" y="610.257" width="805.77" height="769.558" filterUnits="userSpaceOnUse" color-interpolation-filters="sRGB">
<feFlood flood-opacity="0" result="BackgroundImageFix"/>
<feBlend mode="normal" in="SourceGraphic" in2="BackgroundImageFix" result="shape"/>
<feGaussianBlur stdDeviation="3.5" result="effect1_foregroundBlur_0_10"/>
</filter>
<filter id="filter23_f_0_10" x="4445.78" y="612.467" width="403.566" height="371.192" filterUnits="userSpaceOnUse" color-interpolation-filters="sRGB">
<feFlood flood-opacity="0" result="BackgroundImageFix"/>
<feBlend mode="normal" in="SourceGraphic" in2="BackgroundImageFix" result="shape"/>
<feGaussianBlur stdDeviation="10" result="effect1_foregroundBlur_0_10"/>
</filter>
<filter id="filter24_f_0_10" x="4610.7" y="1237.52" width="272.076" height="252.105" filterUnits="userSpaceOnUse" color-interpolation-filters="sRGB">
<feFlood flood-opacity="0" result="BackgroundImageFix"/>
<feBlend mode="normal" in="SourceGraphic" in2="BackgroundImageFix" result="shape"/>
<feGaussianBlur stdDeviation="25" result="effect1_foregroundBlur_0_10"/>
</filter>
<filter id="filter25_df_0_10" x="4501.75" y="55.0283" width="1060.97" height="1006.5" filterUnits="userSpaceOnUse" color-interpolation-filters="sRGB">
<feFlood flood-opacity="0" result="BackgroundImageFix"/>
<feColorMatrix in="SourceAlpha" type="matrix" values="0 0 0 0 0 0 0 0 0 0 0 0 0 0 0 0 0 0 127 0" result="hardAlpha"/>
<feOffset dy="4"/>
<feGaussianBlur stdDeviation="2"/>
<feColorMatrix type="matrix" values="0 0 0 0 0 0 0 0 0 0 0 0 0 0 0 0 0 0 0.25 0"/>
<feBlend mode="normal" in2="BackgroundImageFix" result="effect1_dropShadow_0_10"/>
<feBlend mode="normal" in="SourceGraphic" in2="effect1_dropShadow_0_10" result="shape"/>
<feGaussianBlur stdDeviation="25" result="effect2_foregroundBlur_0_10"/>
</filter>
<filter id="filter26_f_0_10" x="5465.77" y="4287.32" width="325.956" height="572.879" filterUnits="userSpaceOnUse" color-interpolation-filters="sRGB">
<feFlood flood-opacity="0" result="BackgroundImageFix"/>
<feBlend mode="normal" in="SourceGraphic" in2="BackgroundImageFix" result="shape"/>
<feGaussianBlur stdDeviation="5" result="effect1_foregroundBlur_0_10"/>
</filter>
<filter id="filter27_df_0_10" x="4416.51" y="1004.97" width="459.57" height="722.347" filterUnits="userSpaceOnUse" color-interpolation-filters="sRGB">
<feFlood flood-opacity="0" result="BackgroundImageFix"/>
<feColorMatrix in="SourceAlpha" type="matrix" values="0 0 0 0 0 0 0 0 0 0 0 0 0 0 0 0 0 0 127 0" result="hardAlpha"/>
<feOffset dx="-10" dy="4"/>
<feGaussianBlur stdDeviation="15"/>
<feColorMatrix type="matrix" values="0 0 0 0 0.870588 0 0 0 0 0.74902 0 0 0 0 0.564706 0 0 0 1 0"/>
<feBlend mode="normal" in2="BackgroundImageFix" result="effect1_dropShadow_0_10"/>
<feBlend mode="normal" in="SourceGraphic" in2="effect1_dropShadow_0_10" result="shape"/>
<feGaussianBlur stdDeviation="50" result="effect2_foregroundBlur_0_10"/>
</filter>
<filter id="filter28_df_0_10" x="4356.26" y="789.488" width="519.823" height="937.833" filterUnits="userSpaceOnUse" color-interpolation-filters="sRGB">
<feFlood flood-opacity="0" result="BackgroundImageFix"/>
<feColorMatrix in="SourceAlpha" type="matrix" values="0 0 0 0 0 0 0 0 0 0 0 0 0 0 0 0 0 0 127 0" result="hardAlpha"/>
<feOffset dx="-10" dy="4"/>
<feGaussianBlur stdDeviation="15"/>
<feColorMatrix type="matrix" values="0 0 0 0 0.870588 0 0 0 0 0.74902 0 0 0 0 0.564706 0 0 0 1 0"/>
<feBlend mode="normal" in2="BackgroundImageFix" result="effect1_dropShadow_0_10"/>
<feBlend mode="normal" in="SourceGraphic" in2="effect1_dropShadow_0_10" result="shape"/>
<feGaussianBlur stdDeviation="50" result="effect2_foregroundBlur_0_10"/>
</filter>
<filter id="filter29_f_0_10" x="4718.99" y="1439.63" width="471.963" height="1017.9" filterUnits="userSpaceOnUse" color-interpolation-filters="sRGB">
<feFlood flood-opacity="0" result="BackgroundImageFix"/>
<feBlend mode="normal" in="SourceGraphic" in2="BackgroundImageFix" result="shape"/>
<feGaussianBlur stdDeviation="50" result="effect1_foregroundBlur_0_10"/>
</filter>
<filter id="filter30_f_0_10" x="4582.49" y="78.083" width="357.837" height="357.837" filterUnits="userSpaceOnUse" color-interpolation-filters="sRGB">
<feFlood flood-opacity="0" result="BackgroundImageFix"/>
<feBlend mode="normal" in="SourceGraphic" in2="BackgroundImageFix" result="shape"/>
<feGaussianBlur stdDeviation="50" result="effect1_foregroundBlur_0_10"/>
</filter>
<filter id="filter31_f_0_10" x="4477.25" y="467.204" width="357.837" height="357.837" filterUnits="userSpaceOnUse" color-interpolation-filters="sRGB">
<feFlood flood-opacity="0" result="BackgroundImageFix"/>
<feBlend mode="normal" in="SourceGraphic" in2="BackgroundImageFix" result="shape"/>
<feGaussianBlur stdDeviation="50" result="effect1_foregroundBlur_0_10"/>
</filter>
<filter id="filter32_f_0_10" x="4532.24" y="386.493" width="357.837" height="357.837" filterUnits="userSpaceOnUse" color-interpolation-filters="sRGB">
<feFlood flood-opacity="0" result="BackgroundImageFix"/>
<feBlend mode="normal" in="SourceGraphic" in2="BackgroundImageFix" result="shape"/>
<feGaussianBlur stdDeviation="50" result="effect1_foregroundBlur_0_10"/>
</filter>
<filter id="filter33_f_0_10" x="4420.68" y="392.989" width="357.837" height="357.837" filterUnits="userSpaceOnUse" color-interpolation-filters="sRGB">
<feFlood flood-opacity="0" result="BackgroundImageFix"/>
<feBlend mode="normal" in="SourceGraphic" in2="BackgroundImageFix" result="shape"/>
<feGaussianBlur stdDeviation="50" result="effect1_foregroundBlur_0_10"/>
</filter>
<filter id="filter34_f_0_10" x="4628.98" y="476.946" width="357.837" height="357.837" filterUnits="userSpaceOnUse" color-interpolation-filters="sRGB">
<feFlood flood-opacity="0" result="BackgroundImageFix"/>
<feBlend mode="normal" in="SourceGraphic" in2="BackgroundImageFix" result="shape"/>
<feGaussianBlur stdDeviation="50" result="effect1_foregroundBlur_0_10"/>
</filter>
<filter id="filter35_f_0_10" x="4628.98" y="301.204" width="357.837" height="357.837" filterUnits="userSpaceOnUse" color-interpolation-filters="sRGB">
<feFlood flood-opacity="0" result="BackgroundImageFix"/>
<feBlend mode="normal" in="SourceGraphic" in2="BackgroundImageFix" result="shape"/>
<feGaussianBlur stdDeviation="50" result="effect1_foregroundBlur_0_10"/>
</filter>
<filter id="filter36_f_0_10" x="4650.36" y="210.497" width="357.837" height="357.837" filterUnits="userSpaceOnUse" color-interpolation-filters="sRGB">
<feFlood flood-opacity="0" result="BackgroundImageFix"/>
<feBlend mode="normal" in="SourceGraphic" in2="BackgroundImageFix" result="shape"/>
<feGaussianBlur stdDeviation="50" result="effect1_foregroundBlur_0_10"/>
</filter>
<filter id="filter37_f_0_10" x="4761.92" y="501.302" width="357.837" height="357.837" filterUnits="userSpaceOnUse" color-interpolation-filters="sRGB">
<feFlood flood-opacity="0" result="BackgroundImageFix"/>
<feBlend mode="normal" in="SourceGraphic" in2="BackgroundImageFix" result="shape"/>
<feGaussianBlur stdDeviation="50" result="effect1_foregroundBlur_0_10"/>
</filter>
<filter id="filter38_f_0_10" x="4694.05" y="186.396" width="357.837" height="357.837" filterUnits="userSpaceOnUse" color-interpolation-filters="sRGB">
<feFlood flood-opacity="0" result="BackgroundImageFix"/>
<feBlend mode="normal" in="SourceGraphic" in2="BackgroundImageFix" result="shape"/>
<feGaussianBlur stdDeviation="50" result="effect1_foregroundBlur_0_10"/>
</filter>
<filter id="filter39_f_0_10" x="4697.3" y="48.5635" width="357.837" height="357.837" filterUnits="userSpaceOnUse" color-interpolation-filters="sRGB">
<feFlood flood-opacity="0" result="BackgroundImageFix"/>
<feBlend mode="normal" in="SourceGraphic" in2="BackgroundImageFix" result="shape"/>
<feGaussianBlur stdDeviation="50" result="effect1_foregroundBlur_0_10"/>
</filter>
<filter id="filter40_f_0_10" x="5187.05" y="539.517" width="357.837" height="357.837" filterUnits="userSpaceOnUse" color-interpolation-filters="sRGB">
<feFlood flood-opacity="0" result="BackgroundImageFix"/>
<feBlend mode="normal" in="SourceGraphic" in2="BackgroundImageFix" result="shape"/>
<feGaussianBlur stdDeviation="50" result="effect1_foregroundBlur_0_10"/>
</filter>
<filter id="filter41_f_0_10" x="5295.36" y="473.7" width="357.837" height="357.837" filterUnits="userSpaceOnUse" color-interpolation-filters="sRGB">
<feFlood flood-opacity="0" result="BackgroundImageFix"/>
<feBlend mode="normal" in="SourceGraphic" in2="BackgroundImageFix" result="shape"/>
<feGaussianBlur stdDeviation="50" result="effect1_foregroundBlur_0_10"/>
</filter>
<filter id="filter42_f_0_10" x="5220.5" y="636.591" width="357.837" height="357.837" filterUnits="userSpaceOnUse" color-interpolation-filters="sRGB">
<feFlood flood-opacity="0" result="BackgroundImageFix"/>
<feBlend mode="normal" in="SourceGraphic" in2="BackgroundImageFix" result="shape"/>
<feGaussianBlur stdDeviation="50" result="effect1_foregroundBlur_0_10"/>
</filter>
<filter id="filter43_f_0_10" x="5149.74" y="741.693" width="357.837" height="357.837" filterUnits="userSpaceOnUse" color-interpolation-filters="sRGB">
<feFlood flood-opacity="0" result="BackgroundImageFix"/>
<feBlend mode="normal" in="SourceGraphic" in2="BackgroundImageFix" result="shape"/>
<feGaussianBlur stdDeviation="50" result="effect1_foregroundBlur_0_10"/>
</filter>
<filter id="filter44_f_0_10" x="5301.86" y="358.892" width="357.837" height="357.837" filterUnits="userSpaceOnUse" color-interpolation-filters="sRGB">
<feFlood flood-opacity="0" result="BackgroundImageFix"/>
<feBlend mode="normal" in="SourceGraphic" in2="BackgroundImageFix" result="shape"/>
<feGaussianBlur stdDeviation="50" result="effect1_foregroundBlur_0_10"/>
</filter>
<filter id="filter45_f_0_10" x="5258.05" y="265.188" width="357.837" height="357.837" filterUnits="userSpaceOnUse" color-interpolation-filters="sRGB">
<feFlood flood-opacity="0" result="BackgroundImageFix"/>
<feBlend mode="normal" in="SourceGraphic" in2="BackgroundImageFix" result="shape"/>
<feGaussianBlur stdDeviation="50" result="effect1_foregroundBlur_0_10"/>
</filter>
<filter id="filter46_f_0_10" x="4424.8" y="379.997" width="357.837" height="357.837" filterUnits="userSpaceOnUse" color-interpolation-filters="sRGB">
<feFlood flood-opacity="0" result="BackgroundImageFix"/>
<feBlend mode="normal" in="SourceGraphic" in2="BackgroundImageFix" result="shape"/>
<feGaussianBlur stdDeviation="50" result="effect1_foregroundBlur_0_10"/>
</filter>
<filter id="filter47_f_0_10" x="4390.42" y="271.685" width="357.837" height="357.837" filterUnits="userSpaceOnUse" color-interpolation-filters="sRGB">
<feFlood flood-opacity="0" result="BackgroundImageFix"/>
<feBlend mode="normal" in="SourceGraphic" in2="BackgroundImageFix" result="shape"/>
<feGaussianBlur stdDeviation="50" result="effect1_foregroundBlur_0_10"/>
</filter>
<filter id="filter48_f_0_10" x="4494.55" y="250.579" width="357.837" height="357.837" filterUnits="userSpaceOnUse" color-interpolation-filters="sRGB">
<feFlood flood-opacity="0" result="BackgroundImageFix"/>
<feBlend mode="normal" in="SourceGraphic" in2="BackgroundImageFix" result="shape"/>
<feGaussianBlur stdDeviation="50" result="effect1_foregroundBlur_0_10"/>
</filter>
<filter id="filter49_f_0_10" x="4538.8" y="150.38" width="357.837" height="357.837" filterUnits="userSpaceOnUse" color-interpolation-filters="sRGB">
<feFlood flood-opacity="0" result="BackgroundImageFix"/>
<feBlend mode="normal" in="SourceGraphic" in2="BackgroundImageFix" result="shape"/>
<feGaussianBlur stdDeviation="50" result="effect1_foregroundBlur_0_10"/>
</filter>
<filter id="filter50_f_0_10" x="5136.65" y="1494.71" width="1090.69" height="2342.96" filterUnits="userSpaceOnUse" color-interpolation-filters="sRGB">
<feFlood flood-opacity="0" result="BackgroundImageFix"/>
<feBlend mode="normal" in="SourceGraphic" in2="BackgroundImageFix" result="shape"/>
<feGaussianBlur stdDeviation="10" result="effect1_foregroundBlur_0_10"/>
</filter>
<filter id="filter51_f_0_10" x="4523.05" y="1398.96" width="93.5739" height="51.7816" filterUnits="userSpaceOnUse" color-interpolation-filters="sRGB">
<feFlood flood-opacity="0" result="BackgroundImageFix"/>
<feBlend mode="normal" in="SourceGraphic" in2="BackgroundImageFix" result="shape"/>
<feGaussianBlur stdDeviation="5" result="effect1_foregroundBlur_0_10"/>
</filter>
<filter id="filter52_f_0_10" x="4520.02" y="1162.24" width="88.7894" height="206.372" filterUnits="userSpaceOnUse" color-interpolation-filters="sRGB">
<feFlood flood-opacity="0" result="BackgroundImageFix"/>
<feBlend mode="normal" in="SourceGraphic" in2="BackgroundImageFix" result="shape"/>
<feGaussianBlur stdDeviation="5" result="effect1_foregroundBlur_0_10"/>
</filter>
<filter id="filter53_f_0_10" x="415.018" y="-391.375" width="7282.71" height="6188.38" filterUnits="userSpaceOnUse" color-interpolation-filters="sRGB">
<feFlood flood-opacity="0" result="BackgroundImageFix"/>
<feBlend mode="normal" in="SourceGraphic" in2="BackgroundImageFix" result="shape"/>
<feGaussianBlur stdDeviation="125" result="effect1_foregroundBlur_0_10"/>
</filter>
<filter id="filter54_f_0_10" x="6299.7" y="-961.668" width="4603.51" height="3502.64" filterUnits="userSpaceOnUse" color-interpolation-filters="sRGB">
<feFlood flood-opacity="0" result="BackgroundImageFix"/>
<feBlend mode="normal" in="SourceGraphic" in2="BackgroundImageFix" result="shape"/>
<feGaussianBlur stdDeviation="100" result="effect1_foregroundBlur_0_10"/>
</filter>
<filter id="filter55_i_0_10" x="1964.27" y="3101.15" width="492.264" height="59.28" filterUnits="userSpaceOnUse" color-interpolation-filters="sRGB">
<feFlood flood-opacity="0" result="BackgroundImageFix"/>
<feBlend mode="normal" in="SourceGraphic" in2="BackgroundImageFix" result="shape"/>
<feColorMatrix in="SourceAlpha" type="matrix" values="0 0 0 0 0 0 0 0 0 0 0 0 0 0 0 0 0 0 127 0" result="hardAlpha"/>
<feOffset dy="2"/>
<feGaussianBlur stdDeviation="2.5"/>
<feComposite in2="hardAlpha" operator="arithmetic" k2="-1" k3="1"/>
<feColorMatrix type="matrix" values="0 0 0 0 0 0 0 0 0 0 0 0 0 0 0 0 0 0 0.3 0"/>
<feBlend mode="normal" in2="shape" result="effect1_innerShadow_0_10"/>
</filter>
<linearGradient id="paint0_linear_0_10" x1="7290.62" y1="-227.496" x2="7290.62" y2="3738.54" gradientUnits="userSpaceOnUse">
<stop stop-color="#BC9A87"/>
<stop offset="1" stop-color="#E8DBD4"/>
</linearGradient>
<linearGradient id="paint1_linear_0_10" x1="3361.42" y1="-902.469" x2="3361.42" y2="4218.25" gradientUnits="userSpaceOnUse">
<stop stop-color="#C0AAA1"/>
<stop offset="1" stop-color="#FCF1E9"/>
</linearGradient>
<linearGradient id="paint2_linear_0_10" x1="1607.14" y1="-629.105" x2="1607.14" y2="5502.18" gradientUnits="userSpaceOnUse">
<stop stop-color="#C0AAA1"/>
<stop offset="1" stop-color="#FCF1E9"/>
</linearGradient>
<linearGradient id="paint3_linear_0_10" x1="3934.09" y1="20.3997" x2="3934.09" y2="3350.32" gradientUnits="userSpaceOnUse">
<stop stop-color="#625952"/>
<stop offset="1" stop-color="#53493F"/>
</linearGradient>
<linearGradient id="paint4_linear_0_10" x1="2463.62" y1="-27.7292" x2="2463.63" y2="4398.69" gradientUnits="userSpaceOnUse">
<stop stop-color="#625952"/>
<stop offset="1" stop-color="#53493F"/>
</linearGradient>
<linearGradient id="paint5_linear_0_10" x1="3527.36" y1="5021.93" x2="3266.4" y2="5021.93" gradientUnits="userSpaceOnUse">
<stop stop-color="#3E2A2A"/>
<stop offset="1" stop-color="#4D3838"/>
</linearGradient>
<linearGradient id="paint6_linear_0_10" x1="1805.45" y1="5021.93" x2="1502.9" y2="5021.93" gradientUnits="userSpaceOnUse">
<stop stop-color="#3E2A2A"/>
<stop offset="1" stop-color="#4D3838"/>
</linearGradient>
<linearGradient id="paint7_linear_0_10" x1="3266.4" y1="3568.48" x2="1805.45" y2="3568.47" gradientUnits="userSpaceOnUse">
<stop stop-color="#4D3838"/>
<stop offset="1" stop-color="#3E2A2A"/>
</linearGradient>
<linearGradient id="paint8_linear_0_10" x1="3474.3" y1="2345.06" x2="4982.06" y2="1421.94" gradientUnits="userSpaceOnUse">
<stop stop-color="#FAE4C3"/>
<stop offset="1" stop-color="#FAE4C3" stop-opacity="0"/>
</linearGradient>
<linearGradient id="paint9_linear_0_10" x1="5934.41" y1="2553.13" x2="6537.48" y2="2553.13" gradientUnits="userSpaceOnUse">
<stop stop-color="#A88B82"/>
<stop offset="1" stop-color="#674F48"/>
</linearGradient>
<linearGradient id="paint10_linear_0_10" x1="5823.98" y1="2899.51" x2="6683.3" y2="2899.51" gradientUnits="userSpaceOnUse">
<stop stop-color="#6A4E46"/>
<stop offset="1" stop-color="#563B33"/>
</linearGradient>
<linearGradient id="paint11_linear_0_10" x1="6263.05" y1="1447.41" x2="6232.57" y2="3234.98" gradientUnits="userSpaceOnUse">
<stop stop-color="#F2C37B"/>
<stop offset="1" stop-color="#F2C37B" stop-opacity="0"/>
</linearGradient>
<linearGradient id="paint12_linear_0_10" x1="6263.05" y1="916.743" x2="6243.41" y2="-234.961" gradientUnits="userSpaceOnUse">
<stop stop-color="#F2C37B"/>
<stop offset="1" stop-color="#F2C37B" stop-opacity="0"/>
</linearGradient>
<linearGradient id="paint13_linear_0_10" x1="3638.05" y1="2728.29" x2="3665.42" y2="2747.97" gradientUnits="userSpaceOnUse">
<stop offset="0.0833333" stop-color="#878786" stop-opacity="0.3"/>
<stop offset="1" stop-color="#222222" stop-opacity="0.5"/>
</linearGradient>
<linearGradient id="paint14_linear_0_10" x1="3691.46" y1="2717.49" x2="3722.39" y2="2736.81" gradientUnits="userSpaceOnUse">
<stop offset="0.0833333" stop-color="#878786" stop-opacity="0.3"/>
<stop offset="1" stop-color="#222222" stop-opacity="0.5"/>
</linearGradient>
<linearGradient id="paint15_linear_0_10" x1="3808.12" y1="2599.35" x2="4197.96" y2="2599.35" gradientUnits="userSpaceOnUse">
<stop offset="0.0833333" stop-color="#878786"/>
<stop offset="1" stop-color="#222222"/>
</linearGradient>
<linearGradient id="paint16_linear_0_10" x1="3644.34" y1="2709.19" x2="4036.07" y2="2709.19" gradientUnits="userSpaceOnUse">
<stop offset="0.0833333" stop-color="#878786"/>
<stop offset="1" stop-color="#222222"/>
</linearGradient>
<linearGradient id="paint17_linear_0_10" x1="5400.71" y1="2120.09" x2="4610.77" y2="2821.19" gradientUnits="userSpaceOnUse">
<stop stop-color="#0A5952"/>
<stop offset="1" stop-color="#10615A"/>
</linearGradient>
<linearGradient id="paint18_linear_0_10" x1="4513.42" y1="759.239" x2="4647.56" y2="798.063" gradientUnits="userSpaceOnUse">
<stop stop-color="#5A4337"/>
<stop offset="1" stop-color="#5A4337" stop-opacity="0"/>
</linearGradient>
<linearGradient id="paint19_linear_0_10" x1="4698.99" y1="1090.51" x2="4502.29" y2="1112.83" gradientUnits="userSpaceOnUse">
<stop/>
<stop offset="0.557292" stop-opacity="0.583333"/>
<stop offset="1" stop-opacity="0"/>
</linearGradient>
<linearGradient id="paint20_linear_0_10" x1="4608.38" y1="1198.23" x2="4515.98" y2="1278.96" gradientUnits="userSpaceOnUse">
<stop/>
<stop offset="1" stop-color="#A5656D"/>
</linearGradient>
<linearGradient id="paint21_linear_0_10" x1="5395.73" y1="4722.94" x2="5692.49" y2="4627.07" gradientUnits="userSpaceOnUse">
<stop stop-color="#763731"/>
<stop offset="1" stop-color="#7E3730"/>
</linearGradient>
<linearGradient id="paint22_linear_0_10" x1="5525.89" y1="2248.64" x2="4735.95" y2="2949.73" gradientUnits="userSpaceOnUse">
<stop stop-color="#0A5952"/>
<stop offset="1" stop-color="#0E5E57"/>
</linearGradient>
<linearGradient id="paint23_linear_0_10" x1="4433.4" y1="953.286" x2="4824.56" y2="1575.45" gradientUnits="userSpaceOnUse">
<stop stop-color="#DEBF90"/>
<stop offset="0.0001" stop-color="#FEEACB" stop-opacity="0.994792"/>
<stop offset="1" stop-color="#FFFAF2" stop-opacity="0"/>
</linearGradient>
<radialGradient id="paint24_radial_0_10" cx="0" cy="0" r="1" gradientUnits="userSpaceOnUse" gradientTransform="translate(4568.41 1264.89) rotate(34.8854) scale(91.6598 73.7169)">
<stop stop-color="#F2C37B"/>
<stop offset="1" stop-color="#F2C37B" stop-opacity="0"/>
</radialGradient>
<linearGradient id="paint25_linear_0_10" x1="4175.6" y1="2559.49" x2="7447.73" y2="5547.01" gradientUnits="userSpaceOnUse">
<stop offset="0.469113" stop-color="#D1BDA8"/>
<stop offset="1" stop-color="#D1BDA8" stop-opacity="0"/>
</linearGradient>
<linearGradient id="paint26_linear_0_10" x1="7152.69" y1="926.819" x2="8247.04" y2="1830.3" gradientUnits="userSpaceOnUse">
<stop stop-color="#F2C37B"/>
<stop offset="1" stop-color="#F2C37B" stop-opacity="0.4"/>
</linearGradient>
<linearGradient id="paint27_linear_0_10" x1="5820.53" y1="2282.03" x2="5820.53" y2="4350.37" gradientUnits="userSpaceOnUse">
<stop stop-color="#D1D1D1"/>
<stop offset="1" stop-color="#B3B3B3"/>
</linearGradient>
<linearGradient id="paint28_linear_0_10" x1="5825.95" y1="3605.09" x2="6302.38" y2="4247.61" gradientUnits="userSpaceOnUse">
<stop stop-color="#F1F1F1"/>
<stop offset="1" stop-color="white" stop-opacity="0"/>
</linearGradient>
<linearGradient id="paint29_linear_0_10" x1="9248" y1="3539.13" x2="3.9997" y2="3539.13" gradientUnits="userSpaceOnUse">
<stop stop-color="#552C64"/>
<stop offset="1" stop-color="#D3BFBF" stop-opacity="0"/>
</linearGradient>
<linearGradient id="paint30_linear_0_10" x1="-1105.87" y1="-953.462" x2="9437.37" y2="4958.02" gradientUnits="userSpaceOnUse">
<stop stop-color="white" stop-opacity="0"/>
<stop offset="1" stop-color="#7B0D4F"/>
</linearGradient>
<clipPath id="clip0_0_10">
<rect width="6482" height="5219" fill="white" transform="translate(4)"/>
</clipPath>
</defs>
</svg>
